<?xml version="1.0" standalone="no"?>
<!DOCTYPE svg PUBLIC "-//W3C//DTD SVG 20010904//EN"
 "http://www.w3.org/TR/2001/REC-SVG-20010904/DTD/svg10.dtd">
<svg version="1.0" xmlns="http://www.w3.org/2000/svg"
 width="306.000000pt" height="306.000000pt" viewBox="0 0 306.000000 306.000000"
 preserveAspectRatio="xMidYMid meet">
<metadata>
Created by potrace 1.14, written by Peter Selinger 2001-2017
</metadata>
<g transform="translate(0.000000,306.000000) scale(0.100000,-0.100000)"
fill="#000000" stroke="none">
<path d="M1260 3030 c-767 -140 -1318 -850 -1251 -1612 20 -226 62 -381 157
-573 209 -422 607 -723 1077 -817 159 -31 405 -31 564 0 542 108 981 487 1161
1003 61 175 77 274 77 484 -1 264 -40 447 -141 664 -97 208 -283 434 -474 577
-158 118 -394 224 -600 269 -121 27 -438 30 -570 5z m475 -51 c525 -67 996
-452 1173 -960 62 -178 77 -273 77 -499 0 -187 -3 -215 -27 -317 -122 -511
-488 -910 -985 -1072 -130 -42 -238 -61 -388 -68 -400 -17 -780 128 -1072 410
-220 213 -356 458 -420 757 -34 154 -38 438 -9 570 70 326 214 586 443 800
326 304 749 437 1208 379z"/>
<path d="M1647 2807 c-3 -12 -11 -57 -17 -101 -10 -64 -9 -80 2 -87 23 -15 32
-4 43 57 l11 59 23 -63 c23 -61 49 -89 76 -79 7 3 17 39 24 89 7 46 14 90 17
99 3 11 -3 19 -18 22 -12 4 -24 5 -25 3 -2 -2 -9 -32 -15 -66 l-11 -64 -25 70
c-13 38 -25 69 -26 70 0 1 -13 4 -27 8 -22 5 -28 2 -32 -17z"/>
<path d="M1233 2794 c-90 -45 -50 -204 52 -204 48 0 95 44 95 90 0 36 -21 90
-42 107 -25 21 -71 24 -105 7z m82 -64 c20 -38 19 -53 -4 -81 -18 -22 -20 -22
-43 -7 -47 31 -42 118 6 118 18 0 30 -9 41 -30z"/>
<path d="M818 2716 c-18 -13 -25 -61 -10 -70 18 -11 33 13 30 47 -3 32 -5 34
-20 23z"/>
<path d="M838 2631 c-32 -20 -58 -39 -58 -43 0 -14 102 -168 111 -168 6 0 35
16 66 36 50 32 54 37 40 51 -14 14 -19 14 -51 -6 -20 -12 -40 -20 -46 -16 -19
11 -10 34 19 51 24 14 28 21 20 36 -10 18 -11 18 -40 -3 -28 -19 -32 -20 -46
-6 -14 14 -11 18 26 42 35 24 39 30 29 44 -7 9 -12 17 -13 17 0 1 -26 -15 -57
-35z"/>
<path d="M2081 2644 c-65 -54 -62 -137 7 -177 55 -32 122 2 143 73 29 97 -73
169 -150 104z m103 -46 c16 -26 -16 -86 -50 -94 -51 -13 -64 35 -27 94 17 27
60 27 77 0z"/>
<path d="M2412 2343 c-71 -56 -81 -67 -72 -84 13 -24 19 -24 46 2 33 31 46 16
28 -33 -10 -30 -11 -44 -3 -54 18 -22 27 -17 39 21 10 31 16 35 44 35 71 0 87
68 33 137 l-34 41 -81 -65z m99 -24 c9 -17 8 -25 -5 -37 -15 -15 -18 -15 -38
6 -22 21 -22 22 -3 37 27 19 32 19 46 -6z"/>
<path d="M490 2309 c-7 -11 -8 -24 -3 -29 42 -36 154 -122 156 -119 2 2 21 26
42 52 34 43 37 50 23 63 -13 14 -18 12 -41 -15 -14 -17 -29 -31 -32 -31 -4 0
-36 23 -71 50 -61 50 -63 50 -74 29z"/>
<path d="M1408 2320 c-304 -37 -570 -253 -669 -543 -150 -440 88 -906 536
-1047 88 -28 280 -38 380 -21 270 47 514 250 614 509 42 110 54 194 49 336 -8
177 -54 306 -165 453 -75 99 -168 175 -288 233 -149 72 -303 99 -457 80z m249
-27 c305 -58 559 -301 628 -603 24 -105 22 -271 -4 -375 -71 -278 -296 -503
-576 -576 -105 -27 -280 -29 -380 -4 -284 71 -511 293 -587 574 -30 111 -30
297 1 405 39 142 103 252 204 355 189 193 448 274 714 224z"/>
<path d="M1395 2280 c-167 -26 -327 -110 -451 -237 -161 -166 -241 -421 -203
-652 42 -261 224 -493 466 -595 176 -74 421 -76 590 -6 183 77 317 201 403
375 61 124 80 205 80 345 0 162 -36 289 -118 419 -71 113 -210 235 -328 287
-132 58 -307 84 -439 64z m-25 -38 c-14 -9 -41 -33 -60 -53 -25 -26 -47 -39
-77 -44 -49 -8 -125 -53 -148 -89 -11 -16 -30 -28 -53 -32 -21 -4 -54 -15 -74
-24 -35 -17 -37 -17 -29 -1 13 24 98 101 151 138 69 47 128 75 210 99 91 28
114 29 80 6z m87 -17 c-45 -39 -96 -65 -128 -65 l-22 0 24 26 c27 30 114 74
144 73 17 0 13 -6 -18 -34z m160 10 c53 -27 91 -61 80 -72 -14 -14 -91 20
-131 58 -34 32 -38 39 -20 39 11 0 43 -11 71 -25z m133 -7 c36 -11 92 -35 125
-53 67 -37 190 -137 214 -174 l15 -23 -39 19 c-22 11 -57 23 -78 27 -23 4 -43
16 -53 30 -23 37 -89 78 -143 90 -35 8 -63 25 -106 64 -65 59 -64 60 65 20z
m-226 -10 c14 -53 4 -168 -15 -168 -12 0 -23 47 -23 95 1 80 24 124 38 73z
m-54 -73 c0 -30 -2 -55 -5 -55 -2 0 -21 11 -41 25 -20 14 -44 25 -53 25 -9 0
3 9 25 19 23 10 45 24 48 30 16 25 26 8 26 -44z m177 -1 c-1 0 -23 -12 -49
-27 l-48 -26 0 54 0 53 49 -26 c27 -15 49 -27 48 -28z m-387 -22 c0 -26 -111
-91 -154 -92 -17 0 -16 4 10 31 16 17 45 39 64 49 36 20 80 26 80 12z m135
-11 c22 -10 54 -33 70 -51 l30 -33 -33 7 c-49 9 -95 33 -127 66 l-29 30 25 0
c13 0 42 -9 64 -19z m305 10 c0 -23 -116 -89 -159 -91 -21 0 36 58 79 80 37
20 80 26 80 11z m135 -11 c23 -11 54 -33 70 -50 25 -26 26 -30 9 -30 -30 0
-116 45 -143 74 l-24 26 23 0 c13 0 42 -9 65 -20z m-531 -12 c14 -54 4 -178
-15 -178 -12 0 -23 47 -23 100 0 83 23 131 38 78z m444 -61 c3 -58 -11 -127
-24 -114 -16 15 -23 101 -13 148 14 67 32 51 37 -34z m-498 -17 l0 -60 -50 28
c-42 22 -47 29 -34 37 9 6 30 20 48 32 17 12 32 22 34 22 1 1 2 -26 2 -59z
m165 5 c19 -7 19 -7 -4 -16 -13 -5 -36 -18 -52 -30 l-29 -20 0 61 0 61 33 -24
c17 -13 41 -27 52 -32z m273 -33 l-3 -27 -48 26 -48 26 48 29 48 30 3 -28 c2
-15 2 -40 0 -56z m120 60 c15 -10 36 -22 47 -26 18 -7 16 -9 -15 -22 -19 -8
-42 -22 -52 -31 -17 -15 -18 -13 -18 40 0 32 3 57 6 57 3 0 18 -8 32 -18z
m-769 -59 c-29 -38 -90 -74 -142 -87 -27 -6 -28 -6 -15 13 30 42 111 89 157
91 11 0 11 -3 0 -17z m142 -9 c30 -15 92 -74 85 -81 -18 -19 -162 60 -174 96
-5 16 46 7 89 -15z m268 -18 c-38 -35 -125 -74 -137 -62 -12 13 70 75 118 90
25 7 47 11 50 9 3 -3 -11 -19 -31 -37z m166 16 c32 -15 85 -61 85 -73 0 -13
-65 8 -107 34 -23 15 -47 36 -53 47 -10 19 -9 20 17 14 15 -4 42 -13 58 -22z
m285 -7 c-34 -35 -74 -58 -123 -69 -26 -6 -27 -5 -18 13 14 26 64 61 110 77
60 22 67 17 31 -21z m160 4 c19 -9 48 -31 65 -48 l29 -31 -34 6 c-44 8 -118
52 -138 82 -15 23 -15 23 14 16 16 -4 45 -15 64 -25z m-980 4 c1 -5 5 -27 9
-51 9 -43 -2 -119 -19 -136 -4 -4 -13 17 -20 47 -11 56 2 147 21 147 5 0 9 -3
9 -7z m448 -76 c2 -34 -2 -75 -8 -92 l-12 -30 -10 25 c-11 29 -13 128 -3 160
12 38 29 6 33 -63z m442 -17 c0 -40 -5 -74 -14 -85 -12 -17 -14 -14 -25 33
-12 46 -10 80 6 136 5 19 6 19 19 1 9 -11 14 -45 14 -85z m-940 -2 c0 -57 -1
-60 -17 -46 -10 9 -33 23 -52 33 l-35 17 30 13 c16 7 38 20 49 29 11 8 21 16
23 16 1 0 2 -28 2 -62z m145 23 l37 -18 -47 -26 c-26 -15 -49 -27 -51 -27 -2
0 -4 25 -4 56 0 47 2 55 14 45 8 -7 31 -20 51 -30z m295 -23 c0 -57 -1 -60
-17 -46 -10 9 -33 23 -52 33 l-35 17 39 19 c22 11 44 24 49 29 15 15 16 14 16
-52z m160 14 c22 -8 20 -10 -25 -35 -26 -15 -49 -27 -51 -27 -2 0 -4 25 -4 56
l0 55 29 -20 c16 -12 39 -25 51 -29z m280 -14 c0 -57 -1 -60 -17 -46 -10 9
-33 23 -51 33 l-34 16 39 21 c21 11 42 24 48 29 14 14 15 12 15 -53z m161 14
c23 -9 23 -9 -11 -27 -19 -9 -43 -24 -52 -33 -17 -14 -18 -11 -18 47 l0 62 29
-20 c16 -12 39 -25 52 -29z m-1115 -47 c28 -14 61 -36 74 -50 l23 -25 -24 0
c-36 1 -100 33 -133 69 -27 28 -28 31 -10 31 11 0 43 -11 70 -25z m289 -5
c-34 -36 -102 -70 -136 -70 -23 1 -22 3 16 36 45 40 88 62 124 63 l25 1 -29
-30z m160 1 c28 -16 57 -36 64 -45 41 -49 -60 -21 -120 34 -42 37 -43 39 -19
39 14 1 48 -12 75 -28z m266 -12 c-38 -34 -128 -74 -140 -63 -3 2 8 17 24 34
33 35 100 69 135 69 23 0 22 -2 -19 -40z m154 22 c49 -24 102 -67 93 -76 -12
-12 -65 5 -111 36 -78 52 -66 79 18 40z m286 -22 c-38 -34 -128 -74 -140 -63
-3 2 6 16 20 30 27 30 114 74 144 73 16 0 11 -8 -24 -40z m74 -74 c0 -104 -17
-131 -35 -55 -10 42 -10 64 0 107 17 80 35 54 35 -52z m-1321 73 c10 -38 7
-125 -6 -155 -11 -28 -11 -28 -23 24 -8 33 -10 67 -4 95 4 24 8 46 9 51 1 16
18 5 24 -15z m442 -14 c7 -38 0 -142 -11 -152 -21 -21 -40 91 -25 147 13 51
27 52 36 5z m438 14 c10 -37 7 -125 -5 -155 l-11 -28 -10 25 c-20 50 -12 180
11 180 5 0 11 -10 15 -22z m-757 -72 c1 -1 -21 -13 -48 -29 l-49 -27 0 54 0
55 48 -26 c26 -15 48 -27 49 -27z m263 -1 l0 -55 -49 28 -50 27 34 17 c19 10
37 22 40 28 15 24 25 6 25 -45z m177 1 c1 -1 -21 -13 -48 -29 l-49 -27 0 55 0
56 48 -27 c26 -15 48 -28 49 -28z m263 -1 c0 -30 -2 -55 -5 -55 -2 0 -25 13
-50 29 l-45 29 30 12 c16 7 35 18 41 26 21 26 29 14 29 -41z m177 1 c1 -1 -21
-13 -48 -29 l-49 -27 0 54 0 55 48 -26 c26 -15 48 -27 49 -27z m261 -1 c-1
-53 -9 -68 -24 -44 -3 6 -24 19 -46 29 l-40 18 35 11 c20 7 41 19 47 27 22 25
28 15 28 -41z m-1320 -19 c1 -24 8 -59 16 -77 12 -27 12 -37 0 -65 -17 -41
-17 -149 0 -189 10 -24 10 -36 0 -61 -7 -17 -14 -50 -15 -73 -4 -51 -11 -43
-32 35 -22 80 -31 225 -19 299 10 58 41 175 46 175 2 0 4 -20 4 -44z m1454
-153 c13 -96 2 -210 -31 -308 l-20 -60 -1 40 c0 22 -7 58 -15 80 -12 34 -12
45 0 83 19 55 19 123 0 169 -13 31 -13 40 0 80 8 24 15 60 16 81 1 36 2 35 21
-23 10 -33 24 -97 30 -142z m-1222 148 c0 -24 -116 -91 -157 -91 -13 0 -11 6
12 30 46 48 145 89 145 61z m134 -11 c23 -12 56 -35 72 -52 l29 -31 -33 7
c-49 9 -95 33 -127 66 -28 29 -28 30 -7 30 12 0 42 -9 66 -20z m306 11 c0 -15
-72 -67 -109 -79 -59 -20 -68 -15 -35 19 43 47 144 88 144 60z m135 -11 c23
-11 54 -34 71 -51 l29 -32 -33 7 c-49 9 -95 33 -127 66 l-29 30 24 0 c13 0 42
-9 65 -20z m305 12 c0 -26 -111 -91 -154 -92 -17 0 -16 4 10 31 43 46 144 88
144 61z m135 -12 c23 -11 54 -34 71 -51 l29 -32 -33 7 c-49 9 -95 33 -127 66
l-29 30 24 0 c13 0 42 -9 65 -20z m-970 -90 c0 -99 -18 -126 -34 -51 -8 37 -8
65 0 102 16 75 34 48 34 -51z m883 11 c4 -62 -10 -122 -25 -108 -16 17 -23 95
-12 145 15 72 32 55 37 -37z m-437 32 c11 -41 13 -44 17 -21 l3 27 51 -26 51
-26 -26 -14 c-39 -20 -33 -22 25 -7 28 8 53 12 56 10 2 -3 -15 -23 -38 -45
-45 -43 -46 -52 -5 -25 l25 16 0 -61 0 -60 -37 20 -38 21 38 -32 c21 -18 42
-40 47 -50 9 -16 6 -17 -32 -9 -22 6 -49 14 -59 19 -35 19 -34 9 2 -13 l36
-22 -51 -30 -51 -30 2 45 c2 37 1 41 -6 20 -5 -14 -12 -42 -16 -62 -3 -21 -10
-38 -15 -38 -9 0 -26 52 -33 105 -2 18 -5 9 -6 -23 l-1 -53 -32 24 c-18 13
-42 27 -53 31 -17 6 -13 10 24 32 54 33 48 41 -10 14 -24 -11 -55 -20 -69 -20
-25 1 -24 1 10 33 19 17 46 40 60 49 l25 17 -33 -10 c-17 -6 -35 -15 -38 -20
-14 -23 -24 -4 -24 46 l0 55 33 -20 c51 -32 54 -23 5 14 -57 44 -70 69 -30 60
15 -4 46 -15 70 -25 50 -21 47 -7 -4 19 l-35 18 50 32 51 31 1 -37 c1 -20 3
-28 6 -17 10 47 25 85 33 85 4 0 14 -21 21 -47z m-501 -44 c0 -51 -2 -60 -14
-50 -8 7 -31 20 -52 30 l-37 18 36 18 c20 9 41 23 48 31 6 8 13 14 15 14 2 0
4 -28 4 -61z m877 2 l0 -59 -49 26 c-40 23 -45 29 -32 37 13 8 73 49 80 54 1
1 1 -26 1 -58z m153 13 l35 -15 -35 -15 c-19 -8 -44 -24 -55 -34 -20 -19 -20
-18 -20 45 0 62 1 64 20 50 11 -8 36 -22 55 -31z m-924 25 c3 -6 23 -18 43
-26 35 -15 35 -16 12 -24 -13 -5 -36 -18 -52 -30 l-29 -20 0 55 c0 53 10 70
26 45z m-176 -80 c37 -18 101 -79 83 -79 -44 0 -145 56 -164 91 -9 18 -8 19
18 13 15 -4 44 -15 63 -25z m299 14 c-23 -29 -42 -43 -94 -68 -62 -31 -80 -32
-64 -7 22 35 116 89 158 91 11 1 11 -2 0 -16z m577 -10 c17 -7 46 -30 65 -50
l34 -36 -35 7 c-43 8 -118 53 -138 84 -15 23 -15 23 14 16 16 -3 43 -13 60
-21z m273 -16 c-44 -41 -123 -76 -137 -62 -11 11 67 73 112 89 68 24 73 17 25
-27z m-1241 -60 c2 -34 -2 -75 -8 -92 -11 -28 -13 -28 -20 -10 -10 24 -12 131
-4 163 11 40 28 7 32 -61z m437 -17 c0 -103 -17 -124 -36 -43 -11 49 7 151 24
134 7 -7 12 -44 12 -91z m445 9 c0 -32 -5 -70 -11 -86 l-11 -28 -10 25 c-13
32 -15 116 -5 155 8 29 9 29 23 11 8 -12 14 -43 14 -77z m438 8 c2 -34 -1 -75
-8 -92 -11 -28 -12 -29 -22 -11 -13 23 -16 120 -5 160 13 45 30 16 35 -57z
m-1215 -11 c9 -5 9 -7 0 -12 -7 -3 -28 -16 -48 -29 l-35 -24 0 59 0 59 35 -24
c20 -13 41 -26 48 -29z m277 -8 c0 -57 -1 -60 -17 -46 -10 9 -33 23 -52 33
l-35 17 30 13 c16 7 38 20 49 29 11 8 21 16 23 16 1 0 2 -28 2 -62z m608 12
c20 0 9 -10 -48 -42 l-45 -26 3 58 4 58 35 -24 c20 -13 43 -24 51 -24z m269
-9 l0 -60 -36 25 c-20 13 -41 24 -48 24 -23 0 -14 18 15 28 15 6 36 17 47 26
11 8 21 16 21 16 1 0 2 -27 1 -59z m-1102 -41 c-34 -35 -101 -70 -135 -70
l-23 0 24 26 c27 29 113 74 143 74 17 0 16 -4 -9 -30z m162 -1 c24 -12 52 -33
63 -49 l20 -28 -37 10 c-55 15 -84 32 -118 68 l-30 33 30 -7 c17 -4 49 -16 72
-27z m712 -5 c-33 -32 -136 -80 -148 -68 -18 18 118 104 164 104 17 0 14 -6
-16 -36z m136 22 c42 -18 101 -62 108 -80 7 -17 -43 -7 -88 17 -29 15 -85 63
-85 72 0 9 31 5 65 -9z m-951 -37 c12 -63 4 -159 -14 -159 -4 0 -13 22 -20 48
-8 37 -8 60 1 95 13 55 24 60 33 16z m886 -64 c0 -37 -6 -69 -14 -81 -14 -18
-15 -18 -22 11 -10 39 -10 103 0 140 7 29 8 29 22 11 8 -12 14 -44 14 -81z
m76 -23 c-23 -13 -45 -27 -51 -32 -6 -5 -10 13 -10 54 l0 61 51 -30 51 -30
-41 -23z m-1016 17 l0 -61 -30 25 c-16 14 -39 29 -51 32 -19 6 -15 10 27 36
27 15 50 28 52 28 1 1 2 -26 2 -60z m177 7 c1 -1 -21 -13 -48 -29 l-49 -27 0
54 0 55 48 -26 c26 -15 48 -27 49 -27z m700 -6 l1 -59 -32 23 c-17 13 -42 27
-55 31 -22 7 -21 8 17 25 22 10 43 23 46 29 15 24 23 8 23 -49z m-928 -44 c20
-13 45 -33 55 -45 19 -21 19 -21 -3 -21 -31 0 -111 43 -141 75 l-25 28 39 -7
c21 -4 55 -18 75 -30z m281 25 c0 -24 -116 -91 -157 -91 -13 0 -11 6 12 30 46
48 145 89 145 61z m144 -16 c18 -9 46 -29 61 -45 l29 -30 -24 0 c-35 0 -102
35 -136 71 l-29 32 33 -7 c19 -3 48 -13 66 -21z m296 16 c0 -23 -113 -91 -151
-91 -22 0 -22 1 7 31 44 47 144 88 144 60z m135 -15 c28 -13 61 -35 74 -50
l24 -26 -21 0 c-33 0 -105 37 -137 70 -25 27 -26 30 -9 30 10 0 42 -11 69 -24z
m299 3 c-28 -31 -115 -79 -143 -79 l-25 0 30 31 c33 35 97 68 133 69 24 0 24
0 5 -21z m-1266 -78 c3 -43 -1 -77 -8 -92 l-13 -23 -9 24 c-12 31 -13 105 -3
148 11 53 29 23 33 -57z m880 0 c4 -75 -12 -129 -30 -98 -11 21 -13 112 -4
155 12 53 30 23 34 -57z m440 6 c2 -35 -2 -75 -9 -92 l-12 -30 -15 49 c-12 41
-12 59 -2 104 15 70 33 56 38 -31z m-884 51 c13 -49 3 -168 -14 -168 -12 0
-31 87 -25 115 3 14 7 36 10 50 7 31 21 32 29 3z m-56 -96 l-3 -27 -49 26 -49
27 36 17 c20 9 42 24 49 33 11 13 13 11 16 -16 2 -18 2 -44 0 -60z m440 30 l0
-58 -52 26 -52 25 42 22 c23 13 45 27 49 33 11 18 13 11 13 -48z m160 -15
c-11 -4 -33 -16 -48 -27 l-28 -20 -4 58 -3 57 51 -30 c44 -26 48 -31 32 -38z
m278 16 l-1 -58 -51 25 -50 25 42 22 c23 13 45 27 49 33 11 17 12 12 11 -47z
m-1211 37 c3 -6 23 -19 43 -30 20 -10 30 -19 22 -20 -9 0 -32 -11 -53 -25
l-37 -26 0 56 c0 51 10 69 25 45z m440 0 c4 -6 23 -17 43 -26 l37 -15 -39 -19
c-21 -11 -44 -24 -52 -31 -12 -10 -14 -2 -14 45 0 52 10 70 25 46z m-322 -74
c-23 -30 -68 -60 -116 -75 -49 -17 -54 -11 -20 23 32 32 75 56 118 67 17 4 31
7 33 8 2 1 -5 -10 -15 -23z m152 -9 c17 -8 44 -30 60 -47 l30 -32 -35 7 c-44
8 -118 53 -137 82 -14 21 -13 21 19 14 18 -4 47 -15 63 -24z m289 8 c-20 -31
-86 -70 -133 -80 -33 -7 -33 -7 -18 15 20 29 76 66 118 78 50 15 51 14 33 -13z
m146 -6 c19 -9 49 -32 65 -49 l30 -32 -35 7 c-19 4 -47 13 -61 21 -35 18 -89
63 -89 75 0 12 45 1 90 -22z m275 -9 c-46 -47 -152 -90 -139 -56 13 33 92 77
174 95 2 1 -13 -17 -35 -39z m170 7 c17 -8 44 -30 60 -47 l30 -32 -35 7 c-19
4 -47 13 -61 21 -33 17 -89 63 -89 74 0 11 58 -3 95 -23z m-980 -87 c0 -101
-18 -126 -35 -47 -8 41 -8 66 1 101 17 69 34 43 34 -54z m439 69 c9 -48 7
-114 -5 -146 -9 -25 -11 -26 -20 -10 -6 10 -11 44 -12 75 -3 94 23 151 37 81z
m444 -52 c2 -34 -2 -75 -8 -92 l-12 -30 -10 25 c-12 30 -14 126 -4 159 13 38
30 8 34 -62z m-349 0 l35 -15 -35 -17 c-19 -10 -41 -24 -51 -32 -15 -13 -17
-9 -20 51 -3 65 -3 65 17 46 11 -10 36 -25 54 -33z m-589 -17 l0 -59 -36 24
c-20 14 -43 25 -50 25 -8 0 -14 5 -14 10 0 6 6 10 13 10 7 0 28 11 47 25 19
13 36 24 38 25 1 0 2 -27 2 -60z m163 6 c9 -5 9 -7 0 -12 -7 -3 -28 -16 -48
-29 l-35 -24 0 59 0 59 35 -24 c20 -13 41 -26 48 -29z m277 -6 l0 -61 -37 26
c-21 14 -43 25 -50 25 -17 0 -17 20 0 21 6 0 28 11 47 24 19 13 36 24 38 24 1
1 2 -26 2 -59z m436 2 l-1 -58 -34 23 c-18 13 -40 23 -47 23 -26 0 -14 16 20
28 19 7 40 19 46 27 7 8 13 15 15 15 1 0 1 -26 1 -58z m154 15 l34 -15 -35
-17 c-19 -10 -42 -24 -51 -33 -17 -14 -18 -11 -18 48 0 60 1 62 18 47 10 -9
33 -23 52 -30z m-1140 -37 c40 -11 95 -48 116 -78 13 -19 12 -19 -19 -12 -46
10 -88 34 -121 69 -32 34 -29 36 24 21z m324 -21 c-36 -38 -94 -69 -130 -69
-23 0 -25 2 -14 15 21 25 70 57 109 71 59 21 68 17 35 -17z m175 -8 c24 -14
50 -36 58 -48 14 -21 13 -21 -20 -13 -47 10 -108 46 -130 75 l-18 25 33 -6
c18 -3 53 -18 77 -33z m265 8 c-33 -35 -75 -59 -121 -70 -40 -9 -41 -1 -5 33
30 28 62 47 101 59 50 14 55 10 25 -22z m156 5 c29 -15 80 -58 80 -68 0 -12
-42 -6 -78 13 -20 11 -50 34 -67 51 l-30 32 35 -7 c19 -4 46 -13 60 -21z m284
-5 c-36 -38 -94 -69 -130 -69 -23 0 -25 2 -14 15 21 25 70 57 109 71 59 21 68
17 35 -17z m-818 -35 c3 -25 4 -66 0 -91 -10 -72 -21 -73 -37 -2 -10 45 4 139
21 139 5 0 12 -21 16 -46z m444 -45 c0 -32 -5 -70 -11 -86 l-11 -28 -10 25
c-11 29 -13 128 -3 161 7 22 8 22 21 4 8 -11 14 -43 14 -76z m96 4 c19 -7 16
-11 -30 -38 l-51 -30 0 61 0 61 30 -23 c17 -13 40 -27 51 -31z m-596 -14 l0
-61 -31 26 c-17 14 -41 29 -54 32 -22 5 -19 9 28 34 29 16 53 29 55 29 1 1 2
-26 2 -60z m167 -2 c-11 -4 -32 -16 -47 -27 -15 -11 -31 -20 -34 -20 -3 0 -6
24 -6 53 l0 54 53 -26 c43 -22 49 -27 34 -34z m270 4 l1 -59 -35 24 c-19 13
-43 26 -54 29 -15 5 -9 12 34 35 28 15 52 29 53 29 0 1 1 -26 1 -58z m-669 0
c26 -7 59 -28 87 -55 41 -41 114 -76 155 -76 8 0 31 -16 50 -37 19 -20 48 -45
65 -55 l30 -19 -35 6 c-152 28 -361 147 -432 247 l-21 30 29 -15 c16 -8 48
-20 72 -26z m1011 -35 c-108 -105 -227 -167 -384 -201 -29 -6 -29 -6 10 23 22
16 51 41 64 56 14 14 31 26 39 26 41 0 100 29 146 71 35 31 68 51 106 63 30 8
62 20 70 26 35 23 21 5 -51 -64z m-854 0 c28 -13 61 -36 75 -51 l25 -28 -39 7
c-42 8 -100 41 -130 75 -19 21 -19 21 0 21 10 0 42 -11 69 -24z m299 3 c-30
-34 -88 -67 -130 -75 l-39 -7 30 33 c33 36 97 69 134 70 24 0 24 0 5 -21z
m144 -3 c48 -24 90 -62 80 -72 -14 -13 -94 20 -132 56 -37 36 -39 40 -18 40
12 0 44 -11 70 -24z m302 16 c0 -26 -111 -91 -154 -92 -17 0 -16 4 10 31 43
46 144 88 144 61z m-395 -107 c0 -110 -17 -131 -36 -44 -12 53 6 158 24 140 7
-7 12 -46 12 -96z m-55 6 l0 -60 -53 27 -53 27 36 18 c19 10 42 24 50 32 8 8
16 15 17 15 2 0 3 -27 3 -59z m141 -24 c-20 -11 -43 -25 -51 -32 -13 -12 -15
-6 -15 49 l0 62 51 -30 51 -30 -36 -19z m-213 -16 c20 -11 51 -34 67 -51 l30
-32 -35 7 c-48 10 -100 38 -129 69 l-24 26 27 0 c15 0 43 -9 64 -19z m296 5
c-11 -29 -115 -86 -157 -86 -21 0 20 43 66 70 56 32 100 40 91 16z"/>
<path d="M327 2023 c-16 -28 -38 -116 -31 -123 10 -10 185 -73 188 -68 4 5 46
125 46 130 0 3 -9 8 -19 11 -15 4 -23 -4 -36 -39 -18 -46 -21 -49 -44 -35 -12
8 -12 14 -2 39 7 17 10 36 6 41 -12 21 -33 11 -40 -19 -7 -34 -17 -42 -38 -34
-14 5 -14 10 -1 46 7 22 11 44 8 49 -6 11 -31 12 -37 2z"/>
<path d="M2630 1997 c-47 -17 -87 -32 -89 -34 -9 -7 34 -125 47 -130 26 -10
33 12 18 54 -13 37 -13 42 1 47 26 10 31 7 38 -24 8 -35 22 -47 38 -31 8 8 8
20 -1 43 -9 25 -9 34 1 40 21 13 25 10 42 -36 14 -35 21 -43 36 -39 11 3 19
11 17 17 -19 65 -44 126 -52 125 -6 0 -49 -15 -96 -32z"/>
<path d="M298 1398 c37 -39 39 -45 15 -51 -13 -3 -11 -5 6 -6 l23 -1 -26 -34
c-37 -49 -32 -56 9 -16 35 34 35 34 36 9 l1 -24 6 23 7 23 34 -26 c43 -31 51
-32 22 -1 -32 34 -36 71 -9 108 21 31 12 30 -24 -1 -27 -23 -50 -22 -93 6
l-40 26 33 -35z"/>
<path d="M2763 1404 c-21 -16 -33 -21 -33 -12 0 10 -2 10 -9 -1 -7 -11 -16
-10 -47 9 l-39 23 34 -36 c33 -35 33 -35 10 -40 l-24 -4 23 -2 23 -1 -19 -27
c-35 -52 -35 -58 1 -24 32 30 37 32 38 15 0 -17 1 -17 7 -1 7 16 11 15 47 -10
l40 -26 -23 25 c-33 36 -37 73 -12 109 26 35 24 36 -17 3z"/>
<path d="M458 839 c-40 -34 -75 -65 -76 -70 -2 -6 2 -16 9 -25 10 -13 15 -12
35 7 l24 22 24 -26 c32 -34 75 -36 104 -4 31 33 27 69 -12 116 l-34 41 -74
-61z m92 -28 c14 -27 -13 -55 -40 -41 -30 16 -32 27 -8 44 29 21 35 20 48 -3z"/>
<path d="M2280 815 c-7 -9 -11 -17 -9 -18 4 -3 110 -89 140 -114 15 -12 22 -8
58 38 36 46 40 54 27 67 -12 13 -18 10 -44 -19 l-30 -33 -57 47 c-64 52 -67
54 -85 32z"/>
<path d="M2016 597 c-15 -11 -15 -19 4 -111 11 -55 22 -101 24 -103 2 -2 11
-1 20 3 11 4 16 15 14 33 -2 18 4 31 21 43 21 14 27 15 46 2 21 -14 55 -10 55
6 0 7 -130 118 -156 133 -6 3 -19 1 -28 -6z m78 -86 c3 -5 -1 -12 -10 -15 -20
-8 -19 -8 -29 22 -6 21 -5 23 13 13 12 -6 23 -15 26 -20z"/>
<path d="M778 534 c-43 -36 -78 -70 -78 -75 0 -18 32 -22 47 -6 15 14 19 14
45 1 21 -11 28 -21 26 -37 -3 -26 8 -47 26 -47 8 0 19 35 31 100 15 81 16 102
5 115 -7 8 -15 15 -19 15 -3 -1 -41 -30 -83 -66z m54 -46 c-6 -6 -15 -7 -22
-3 -8 5 -6 13 7 27 16 18 18 19 21 3 2 -9 -1 -22 -6 -27z"/>
<path d="M1179 439 c-32 -32 -22 -69 26 -96 44 -24 52 -46 18 -51 -14 -2 -23
3 -28 17 -4 14 -15 21 -31 21 -30 0 -31 -19 -3 -54 38 -48 139 -25 139 32 0
20 -39 62 -57 62 -20 0 -37 30 -25 42 9 9 18 6 35 -10 48 -46 79 -14 32 33
-30 31 -77 33 -106 4z"/>
<path d="M1615 448 c-32 -19 -44 -40 -45 -81 0 -72 38 -117 100 -117 36 0 80
38 80 70 0 27 -13 25 -46 -5 -15 -14 -32 -25 -39 -25 -22 0 -45 36 -45 71 0
55 34 76 70 44 17 -15 50 -11 50 5 0 5 -12 18 -26 29 -29 23 -68 27 -99 9z"/>
</g>
</svg>
