<?xml version="1.0" standalone="no"?>
<!DOCTYPE svg PUBLIC "-//W3C//DTD SVG 20010904//EN"
 "http://www.w3.org/TR/2001/REC-SVG-20010904/DTD/svg10.dtd">
<svg version="1.0" xmlns="http://www.w3.org/2000/svg"
 width="306.000000pt" height="306.000000pt" viewBox="0 0 306.000000 306.000000"
 preserveAspectRatio="xMidYMid meet">
<metadata>
Created by potrace 1.14, written by Peter Selinger 2001-2017
</metadata>
<g transform="translate(0.000000,306.000000) scale(0.100000,-0.100000)"
fill="#000000" stroke="none">
<path d="M1430 3054 c-301 -25 -565 -121 -801 -290 -104 -75 -264 -237 -345
-349 -119 -166 -217 -396 -261 -610 -24 -123 -24 -411 0 -545 57 -310 225
-624 443 -830 227 -215 467 -339 784 -407 133 -28 429 -25 572 5 311 67 542
190 772 411 359 348 522 848 437 1341 -112 647 -611 1147 -1251 1254 -91 16
-276 26 -350 20z m420 -97 c566 -134 989 -568 1112 -1140 32 -151 32 -438 0
-587 -41 -187 -112 -354 -223 -521 -84 -127 -272 -314 -399 -398 -474 -311
-1056 -330 -1543 -51 -370 211 -644 604 -710 1020 -46 287 -23 521 78 785 162
424 548 765 995 880 143 37 212 44 400 40 153 -3 203 -8 290 -28z"/>
<path d="M1397 2793 c-38 -4 -38 -5 -33 -41 3 -20 8 -72 12 -114 7 -88 2 -85
112 -72 47 6 52 9 52 31 0 24 -3 25 -50 21 -48 -3 -60 4 -60 33 0 5 20 9 45 9
46 0 54 10 36 39 -6 10 -20 12 -45 8 -30 -5 -36 -3 -36 12 0 19 26 31 68 31
17 0 22 6 22 25 0 23 -3 25 -42 23 -24 -1 -60 -3 -81 -5z"/>
<path d="M1740 2777 c-20 -10 -25 -20 -25 -52 0 -30 -5 -43 -21 -52 -12 -7
-25 -24 -28 -39 -13 -52 48 -99 95 -73 16 8 23 7 32 -4 13 -16 67 -32 67 -20
0 5 -9 23 -21 42 l-20 33 23 25 c19 20 20 25 8 33 -20 13 -34 12 -47 -1 -8 -8
-15 -3 -27 19 -20 39 -20 42 4 42 11 0 20 -6 20 -14 0 -19 50 -28 57 -10 7 20
-23 63 -53 74 -32 12 -34 12 -64 -3z m13 -152 c7 -16 -8 -29 -23 -20 -15 9
-12 35 4 35 8 0 16 -7 19 -15z"/>
<path d="M1183 2747 c-23 -7 -44 -14 -47 -18 -6 -5 47 -206 57 -215 3 -3 15
-3 27 1 19 6 21 12 15 46 -8 47 2 49 40 9 23 -24 35 -30 55 -25 37 10 37 12 0
50 -26 27 -31 38 -22 47 20 20 14 67 -13 93 -26 27 -48 29 -112 12z m77 -66
c0 -24 -39 -39 -51 -20 -16 26 -9 39 21 39 23 0 30 -5 30 -19z"/>
<path d="M2013 2596 l-52 -103 25 -12 c32 -14 30 -15 44 18 12 29 12 29 47 14
41 -16 86 -4 103 28 16 29 12 84 -7 101 -16 14 -96 58 -105 58 -2 0 -27 -47
-55 -104z m121 5 c11 -17 -6 -41 -29 -41 -31 0 -38 13 -24 44 10 20 15 23 30
16 10 -6 20 -14 23 -19z"/>
<path d="M963 2660 c-38 -23 -53 -48 -53 -90 0 -93 91 -156 169 -116 75 39 63
163 -20 208 -43 23 -56 23 -96 -2z m86 -66 c27 -34 27 -80 2 -94 -25 -13 -46
-5 -65 25 -45 69 13 132 63 69z"/>
<path d="M786 2551 c-16 -18 -16 -20 11 -52 60 -71 60 -71 -18 -39 l-73 31
-23 -23 -23 -24 61 -74 c89 -110 85 -107 109 -85 20 18 20 18 -15 61 -19 23
-35 45 -35 48 0 3 29 -5 64 -18 l65 -25 26 20 25 21 -71 86 c-39 48 -74 88
-78 90 -4 1 -15 -6 -25 -17z"/>
<path d="M2230 2485 c-52 -35 -96 -67 -97 -72 -2 -4 6 -14 17 -21 17 -10 24
-10 42 2 18 13 23 13 45 -1 21 -14 24 -22 18 -49 -5 -27 -2 -35 16 -44 11 -7
23 -10 25 -8 9 10 72 222 68 230 -19 30 -42 23 -134 -37z m63 -43 c-6 -24 -18
-28 -28 -11 -4 6 1 16 11 24 23 16 25 15 17 -13z"/>
<path d="M1340 2406 c-167 -39 -306 -113 -428 -230 -112 -107 -206 -263 -247
-411 -22 -80 -31 -302 -16 -390 52 -297 262 -556 542 -669 271 -109 592 -79
829 79 205 137 352 365 390 608 17 103 7 279 -20 377 -48 171 -163 344 -304
458 -84 67 -224 141 -321 167 -80 22 -348 29 -425 11z m113 -53 c-7 -2 -19 -2
-25 0 -7 3 -2 5 12 5 14 0 19 -2 13 -5z m110 0 c-7 -2 -19 -2 -25 0 -7 3 -2 5
12 5 14 0 19 -2 13 -5z m50 0 c-7 -2 -19 -2 -25 0 -7 3 -2 5 12 5 14 0 19 -2
13 -5z m-268 -19 c-27 -7 -54 -13 -60 -13 -17 2 69 27 90 27 11 0 -2 -6 -30
-14z m421 -5 c95 -29 254 -112 241 -125 -3 -3 -29 10 -58 29 -71 44 -148 76
-234 98 -38 10 -58 18 -44 18 15 1 58 -9 95 -20z m-138 -8 c6 -3 -43 -7 -109
-7 -67 -1 -115 2 -108 7 16 9 201 10 217 0z m-368 -10 c-8 -5 -26 -11 -40 -15
-21 -5 -20 -3 5 9 32 15 60 20 35 6z m130 0 c0 -5 -17 -12 -37 -15 -156 -28
-330 -139 -441 -279 -44 -55 -109 -170 -126 -221 -4 -10 -9 -16 -13 -13 -7 8
24 84 45 110 8 9 12 17 8 17 -15 0 70 118 128 179 59 61 176 150 176 134 0 -4
4 -3 8 2 13 19 123 66 186 80 34 7 62 13 64 14 1 1 2 -3 2 -8z m388 -23 c34
-11 62 -25 62 -30 0 -5 4 -7 8 -4 11 7 125 -57 130 -73 2 -7 -13 -1 -34 13
-22 14 -50 31 -64 36 -14 6 -34 15 -45 20 -55 26 -91 38 -147 47 -21 3 -38 10
-38 15 0 12 44 3 128 -24z m-593 -8 c-3 -5 -11 -10 -16 -10 -6 0 -7 5 -4 10 3
6 11 10 16 10 6 0 7 -4 4 -10z m189 -19 c-17 -10 -42 -32 -55 -48 -18 -22 -39
-33 -83 -42 -49 -11 -67 -21 -114 -67 -31 -30 -65 -54 -76 -54 -12 -1 -38 -7
-58 -14 -38 -14 -40 -10 -9 26 8 9 18 15 23 12 4 -3 8 1 8 9 0 28 179 145 202
131 7 -4 8 -3 4 4 -4 7 21 20 71 36 97 31 131 34 87 7z m97 1 c-5 -10 -18 -25
-27 -33 -16 -12 -17 -12 -11 3 4 12 2 15 -9 11 -8 -3 -13 -11 -10 -19 3 -8
-11 -18 -40 -28 -54 -18 -56 -7 -5 33 61 49 121 68 102 33z m143 3 c8 -8 21
-15 28 -15 19 -1 74 -48 65 -56 -18 -18 -154 56 -141 77 8 14 31 11 48 -6z
m127 -5 c38 -12 69 -25 69 -31 0 -6 5 -7 10 -4 14 9 111 -46 103 -58 -3 -6 -1
-7 4 -4 13 8 126 -77 116 -87 -3 -3 0 -6 8 -6 16 -1 56 -50 40 -50 -5 0 -12 4
-15 9 -4 5 -25 12 -49 16 -45 8 -111 59 -100 79 3 6 3 8 -2 4 -4 -4 -26 4 -49
17 -22 13 -60 27 -83 31 -28 4 -43 12 -43 21 0 8 -4 11 -10 8 -5 -3 -10 1 -10
10 0 8 -8 19 -17 22 -10 4 -20 10 -23 13 -3 4 -14 12 -25 18 -31 18 0 14 76
-8z m-636 -23 c-28 -17 -71 -47 -95 -66 -33 -25 -38 -27 -20 -8 29 30 140 106
155 106 6 0 -13 -14 -40 -32z m421 18 c-3 -8 -1 -15 4 -15 12 0 13 -130 1
-149 -11 -18 -18 -5 -26 50 -6 42 8 129 21 129 4 0 4 -7 0 -15z m-46 -82 c0
-52 -1 -55 -17 -41 -10 8 -31 20 -47 26 -16 7 -26 15 -23 19 4 3 13 0 22 -7
13 -11 15 -10 10 2 -4 9 4 19 20 28 14 7 25 17 25 22 0 4 2 8 5 8 3 0 5 -25 5
-57z m133 20 c18 -9 35 -16 40 -15 4 1 7 0 7 -2 0 -3 -88 -56 -94 -56 -1 0 0
20 2 45 2 25 6 45 9 45 2 0 18 -8 36 -17z m490 -63 c96 -87 181 -225 223 -365
24 -79 28 -106 28 -230 0 -150 -11 -212 -61 -329 -23 -55 -86 -164 -102 -176
-4 -3 -23 -26 -44 -51 -42 -52 -151 -142 -161 -132 -3 3 -6 1 -6 -5 0 -17 -99
-69 -200 -103 -89 -31 -104 -33 -240 -33 -111 -1 -162 3 -218 18 -83 21 -253
103 -260 126 -4 11 2 10 24 -5 152 -100 388 -148 569 -114 33 6 69 12 80 13
12 1 25 5 30 8 15 8 79 28 89 27 5 0 12 3 15 8 3 5 40 28 80 52 67 40 257 211
235 211 -5 0 -4 4 2 8 12 8 86 132 78 132 -2 0 2 10 10 23 24 37 46 127 45
181 -1 41 -3 46 -9 26 -11 -34 -12 -22 -10 90 2 104 -14 217 -36 267 -8 17
-14 34 -14 38 0 3 -10 27 -21 53 -31 69 -100 161 -175 236 -37 37 -64 69 -61
72 3 3 41 -30 84 -73 76 -75 153 -184 153 -216 0 -9 5 -19 10 -22 16 -10 40
-73 60 -160 l19 -80 -3 70 c-2 39 -9 83 -15 100 -23 55 -43 100 -52 115 -5 8
-14 26 -19 39 -16 37 -105 145 -160 194 -28 25 -50 48 -50 53 0 7 17 -6 83
-66z m-849 0 c-41 -43 -134 -86 -134 -62 0 21 67 67 119 83 44 13 45 10 15
-21z m125 15 c55 -19 103 -54 95 -67 -4 -6 -2 -8 4 -4 6 3 13 2 17 -4 11 -18
-30 -10 -83 16 -29 14 -50 30 -46 35 3 5 -1 9 -9 9 -8 0 -17 7 -21 15 -7 18
-8 18 43 0z m336 5 c-3 -5 -10 -10 -16 -10 -5 0 -9 5 -9 10 0 6 7 10 16 10 8
0 12 -4 9 -10z m135 -16 c14 -7 40 -26 59 -43 31 -28 33 -31 13 -31 -12 0 -21
3 -21 8 3 19 -2 23 -15 13 -19 -16 -70 15 -62 36 4 10 1 13 -13 8 -14 -4 -23
0 -31 15 -10 19 -9 20 17 14 15 -4 39 -13 53 -20z m-165 6 c9 -15 -15 -42 -32
-36 -8 3 -11 2 -8 -4 7 -11 -32 -33 -45 -25 -5 3 -11 1 -15 -5 -3 -5 -13 -10
-22 -10 -13 0 -12 5 7 25 13 14 29 25 37 25 7 0 13 4 13 8 0 8 36 30 52 31 4
1 10 -4 13 -9z m-364 -76 c1 -45 -8 -114 -16 -123 -2 -1 -9 16 -15 39 -11 39
-6 131 8 154 9 16 22 -22 23 -70z m439 -62 c-7 -31 -16 -50 -22 -46 -5 4 -8
17 -5 30 2 13 0 21 -4 18 -11 -6 -3 111 8 129 4 7 12 -5 21 -33 10 -35 11 -56
2 -98z m-830 95 c0 -2 -12 -14 -27 -28 l-28 -24 24 28 c23 25 31 32 31 24z
m332 -67 l3 -46 -37 25 c-21 13 -38 29 -38 35 0 16 65 56 67 42 1 -6 3 -31 5
-56z m435 15 c0 -49 -2 -54 -16 -42 -9 7 -29 19 -44 27 l-28 14 35 18 c19 10
38 22 41 28 11 17 12 12 12 -45z m136 11 c-3 -5 -1 -6 5 -2 7 4 18 3 26 -1 11
-6 2 -15 -32 -34 l-47 -26 0 51 0 52 27 -15 c14 -9 24 -20 21 -25z m-433 10
c35 -20 39 -25 24 -30 -11 -3 -22 -5 -26 -3 -4 1 -15 -8 -23 -20 -24 -34 -30
-28 -30 27 0 28 3 50 6 50 4 0 26 -11 49 -24z m-520 -30 c0 -2 -8 -10 -17 -17
-16 -13 -17 -12 -4 4 13 16 21 21 21 13z m159 -32 c-27 -29 -79 -58 -124 -68
l-30 -7 35 34 c43 42 87 66 119 67 l24 0 -24 -26z m166 -4 c35 -22 83 -70 69
-70 -34 0 -89 27 -126 60 l-43 40 35 -5 c19 -4 48 -15 65 -25z m277 23 c-6 -2
-10 -9 -7 -13 6 -10 -51 -55 -82 -64 -48 -15 -62 -15 -56 0 3 7 9 11 14 8 5
-3 9 1 9 9 0 15 93 66 120 66 10 -1 11 -2 2 -6z m115 -4 c15 -5 31 -15 34 -21
4 -7 15 -13 24 -14 18 -3 68 -45 61 -51 -9 -9 -86 21 -86 32 0 7 -8 12 -17 11
-10 0 -17 5 -15 12 1 8 -2 11 -6 8 -5 -3 -17 3 -27 14 -20 22 -10 25 32 9z
m322 -14 c-27 -29 -80 -59 -122 -69 -26 -6 -27 -5 -17 14 7 12 18 19 26 16 8
-3 13 0 11 7 -1 7 6 11 17 9 11 -2 15 1 11 8 -7 11 47 39 79 40 16 0 16 -3 -5
-25z m157 -1 c40 -19 94 -74 72 -74 -24 0 -78 21 -78 31 0 5 -7 9 -16 9 -8 0
-12 5 -9 10 4 6 3 10 -2 9 -23 -4 -35 2 -29 17 3 8 2 12 -3 9 -5 -3 -13 0 -17
6 -8 14 35 5 82 -17z m-974 -91 c0 -34 -5 -70 -10 -80 -8 -14 -12 -10 -22 27
-11 42 -8 119 6 142 13 21 27 -27 26 -89z m437 -32 c-10 -66 -14 -70 -27 -33
-11 33 -9 133 4 154 15 25 32 -63 23 -121z m441 87 c0 -9 -3 -18 -7 -21 -5 -2
-3 -2 4 -1 14 3 7 -89 -7 -94 -5 -2 -7 -11 -4 -20 2 -9 -2 -3 -10 13 -18 36
-20 103 -5 142 8 22 12 24 19 13 6 -8 10 -22 10 -32z m-1146 7 c-9 -14 -18
-25 -21 -25 -5 0 5 18 20 38 17 22 18 13 1 -13z m201 -103 c-3 -3 -11 0 -18 8
-10 10 -9 11 2 5 10 -5 12 -4 7 4 -4 6 -11 9 -16 6 -5 -3 -22 1 -37 9 l-28 14
30 12 c17 6 31 10 33 8 2 -2 9 6 15 17 11 18 12 14 15 -29 2 -26 1 -51 -3 -54z
m110 88 c3 -6 21 -18 40 -28 l34 -17 -47 -26 -47 -26 0 53 c0 52 7 66 20 44z
m332 -86 c-2 -3 -23 6 -47 20 l-42 24 36 17 c20 10 40 23 44 29 4 6 8 -11 10
-38 2 -26 1 -50 -1 -52z m112 82 c6 -8 25 -20 42 -26 l31 -13 -29 -13 c-15 -8
-37 -20 -48 -28 -19 -15 -20 -13 -20 39 0 57 5 65 24 41z m331 -41 l0 -54 -36
24 c-20 14 -41 25 -46 25 -5 0 -6 5 -3 11 4 6 14 8 22 5 8 -3 11 -1 8 4 -3 6
0 10 8 10 8 0 20 7 27 15 7 8 14 15 16 15 2 0 4 -25 4 -55z m102 30 c-2 -9 1
-14 7 -11 13 9 61 -4 61 -15 0 -5 -8 -12 -17 -16 -10 -3 -31 -15 -48 -26 -16
-11 -25 -15 -19 -8 7 7 8 29 4 57 -5 31 -3 43 4 41 6 -2 10 -12 8 -22z m-752
-55 c-22 -41 -130 -95 -144 -72 -11 18 96 82 152 92 1 0 -2 -9 -8 -20z m-292
-16 c29 -14 52 -31 52 -36 0 -6 8 -17 18 -25 15 -13 15 -13 -8 -7 -48 13 -90
33 -90 43 0 6 -6 10 -12 9 -7 -2 -12 3 -10 10 1 6 -4 12 -12 12 -8 0 -18 5
-21 10 -11 18 30 10 83 -16z m406 20 c9 -3 13 -10 10 -15 -3 -5 2 -6 10 -3 13
5 86 -53 86 -68 0 -16 -86 22 -122 54 -37 32 -40 37 -21 38 12 0 28 -3 37 -6z
m331 -4 c-4 -6 -11 -8 -16 -4 -5 3 -8 2 -7 -3 2 -4 0 -9 -4 -10 -5 -2 -17 -12
-28 -23 -26 -26 -69 -43 -89 -35 -29 11 78 82 127 84 13 1 21 -3 17 -9z m134
-10 c29 -14 41 -25 38 -34 -4 -10 -1 -13 9 -9 7 3 14 0 14 -7 0 -6 5 -8 10 -5
6 3 10 -1 10 -10 0 -13 -4 -14 -20 -5 -11 6 -20 8 -20 5 0 -9 -63 25 -87 48
-45 40 -23 48 46 17z m301 9 c0 -19 -90 -71 -144 -84 -26 -5 -28 -4 -17 9 7 9
18 13 24 9 5 -3 7 -1 4 4 -11 18 79 71 116 70 9 -1 17 -4 17 -8z m-1270 -84
c-1 -34 -6 -68 -14 -78 -12 -16 -14 -15 -20 14 -9 44 -8 68 5 113 15 53 29 29
29 -49z m889 -25 c-1 -34 -24 -96 -32 -84 -13 22 -17 117 -6 157 l11 42 14
-45 c8 -25 13 -56 13 -70z m418 90 c-3 -11 -1 -17 4 -14 12 7 10 -138 -1 -156
-14 -22 -31 57 -26 115 3 30 8 60 11 65 11 17 18 11 12 -10z m-864 -42 c2 -24
0 -65 -6 -93 l-10 -50 -14 40 c-14 38 -12 122 2 145 11 19 23 1 28 -42z m-349
-25 c16 -9 14 -13 -25 -40 l-44 -29 0 57 0 57 25 -18 c14 -9 33 -21 44 -27z
m396 21 c0 5 7 3 15 -4 8 -7 13 -16 10 -20 -3 -5 4 -6 15 -3 34 9 22 -11 -23
-38 l-42 -25 0 59 c-1 50 1 56 12 41 7 -10 13 -14 13 -10z m433 -7 c-3 -5 -1
-7 5 -3 11 7 62 -13 62 -25 0 -11 -30 -20 -42 -12 -6 3 -8 1 -5 -4 4 -6 -4
-18 -16 -26 l-23 -15 6 49 c4 27 3 49 -2 49 -4 0 -8 5 -8 11 0 8 5 8 15 -1 8
-7 12 -17 8 -23z m-543 -27 l0 -51 -40 23 c-22 13 -40 25 -40 28 1 6 62 48 73
49 4 1 7 -22 7 -49z m437 0 c2 -53 -1 -55 -39 -22 -10 8 -18 12 -18 7 0 -4 -7
-2 -15 5 -12 10 -8 16 28 35 23 13 42 24 42 24 1 1 2 -22 2 -49z m440 -46 c-2
-2 -22 6 -45 18 l-40 23 41 27 42 28 3 -46 c2 -25 1 -48 -1 -50z m-1294 -70
c4 -7 0 -29 -9 -50 -21 -49 -18 -174 4 -196 6 -6 5 -26 -4 -55 -8 -26 -14 -58
-14 -72 -1 -45 -19 0 -35 85 -21 107 -19 233 5 328 11 43 20 81 21 85 1 3 6
-21 13 -54 6 -33 15 -65 19 -71z m1407 74 c32 -152 34 -300 5 -400 l-19 -67
-15 52 c-18 64 -18 86 0 159 11 50 11 63 -4 111 -16 51 -14 123 2 112 4 -2 7
4 7 13 0 37 4 72 8 72 2 0 9 -24 16 -52z m-1515 -25 l-4 -58 16 53 c9 28 20
52 26 52 5 0 6 -8 3 -17 -29 -74 -38 -281 -18 -370 6 -25 6 -43 1 -43 -5 0
-10 8 -11 18 0 9 -2 22 -2 29 -1 6 -5 15 -10 20 -8 8 0 -101 10 -135 5 -15 4
-15 -4 -2 -26 40 -45 184 -39 304 5 105 21 206 33 206 2 0 2 -26 -1 -57z m325
53 c0 -13 -67 -65 -78 -61 -7 3 -11 1 -8 -4 6 -10 -46 -31 -73 -31 -26 1 56
67 103 84 45 16 56 18 56 12z m101 -11 c71 -26 137 -85 93 -85 -8 0 -12 4 -9
10 3 6 -1 7 -9 4 -20 -8 -102 40 -116 66 -13 24 -13 24 41 5z m313 -16 c-36
-38 -81 -62 -100 -55 -9 3 -12 1 -9 -4 3 -6 -1 -10 -9 -10 -22 0 -20 13 4 35
16 14 23 16 32 7 15 -15 28 -15 28 -2 0 6 -4 9 -9 8 -5 -2 -11 2 -12 7 -3 8
75 42 100 45 3 0 -8 -14 -25 -31z m113 20 c15 -6 30 -11 33 -11 17 -1 39 -21
34 -30 -5 -7 -2 -9 8 -5 10 3 25 -4 39 -19 22 -24 22 -24 1 -24 -11 0 -27 7
-35 15 -8 8 -17 12 -20 9 -8 -8 -49 16 -74 43 -34 36 -32 40 14 22z m335 -7
c-7 -2 -10 -8 -6 -13 3 -5 -2 -9 -11 -9 -10 0 -13 5 -9 12 4 7 3 8 -5 4 -9 -6
-9 -11 -1 -21 8 -9 -1 -17 -39 -34 -53 -23 -86 -27 -76 -11 4 6 11 7 17 4 6
-4 8 -2 5 3 -4 6 1 17 11 26 25 23 104 57 116 49 6 -3 5 -7 -2 -10z m96 9 c9
-6 28 -12 42 -15 14 -4 34 -13 44 -21 15 -11 17 -17 7 -29 -16 -20 -40 -11
-92 34 -41 36 -42 52 -1 31z m-485 -68 c-5 -12 -3 -14 7 -8 10 6 12 0 8 -24
-3 -18 -1 -34 4 -37 8 -5 12 19 10 63 l-1 22 37 -22 c51 -29 55 -38 22 -58
-44 -27 -46 -42 -1 -18 22 11 45 18 50 15 5 -4 12 -2 16 4 3 5 14 10 23 10 17
0 -45 -64 -83 -86 -18 -10 -18 -11 3 -16 12 -4 20 -3 18 1 -3 4 8 15 25 25
l29 17 0 -55 0 -55 -42 24 c-24 14 -50 25 -58 24 -8 0 0 -8 17 -17 37 -20 106
-82 99 -89 -7 -7 -77 17 -114 40 l-34 20 13 -21 c8 -12 26 -27 41 -33 26 -11
38 -29 19 -29 -4 0 -24 -11 -44 -24 l-35 -24 4 31 c3 18 0 46 -5 62 -9 28 -9
27 -11 -20 -2 -57 -25 -129 -33 -105 -16 44 -17 74 -5 81 10 7 10 9 1 9 -8 0
-13 15 -13 40 0 46 -3 47 -48 20 -18 -11 -38 -17 -44 -14 -6 4 -8 3 -5 -3 4
-6 -10 -15 -34 -21 -40 -10 -40 -10 -26 11 8 12 22 23 31 25 9 2 27 13 39 25
13 12 32 27 43 34 16 10 14 10 -14 3 -18 -5 -45 -15 -61 -23 l-29 -15 -4 48
c-3 49 0 51 35 22 9 -8 17 -12 17 -9 0 4 11 2 25 -3 35 -13 31 5 -4 19 -15 7
-44 28 -62 48 l-34 36 30 -7 c17 -4 48 -16 70 -28 22 -11 51 -22 65 -24 24 -4
24 -3 5 8 -11 7 -22 13 -25 13 -15 1 -49 33 -42 40 4 5 2 6 -3 2 -6 -3 -17 -2
-25 4 -14 8 -10 10 15 9 3 -1 13 6 21 15 25 25 44 18 44 -16 0 -20 4 -29 13
-26 7 2 11 16 9 35 -2 19 1 32 8 32 6 0 9 4 6 9 -4 5 -3 17 1 27 6 15 7 15 14
-4 5 -12 5 -30 2 -39z m445 9 c9 -39 9 -42 -6 -30 -15 11 -15 11 0 -7 14 -17
15 -28 6 -69 -9 -41 -12 -46 -20 -31 -16 28 -20 113 -8 151 14 42 16 41 28
-14z m-880 -32 c3 -71 -4 -114 -17 -105 -25 15 -22 180 3 172 6 -2 12 -31 14
-67z m88 0 c22 -11 33 -19 27 -20 -7 0 -14 1 -16 3 -1 1 -13 -8 -27 -20 -13
-13 -27 -23 -31 -23 -4 0 -9 22 -11 49 -2 36 0 47 8 40 7 -5 29 -18 50 -29z
m734 -15 l0 -55 -49 27 -48 27 37 17 c21 9 41 22 44 28 13 20 16 11 16 -44z
m154 13 c24 -13 25 -26 0 -15 -3 1 -10 -6 -15 -15 -6 -10 -16 -18 -23 -18 -8
0 -17 -7 -20 -16 -12 -31 -16 -8 -7 39 5 26 5 44 0 41 -5 -3 -9 2 -9 11 0 13
3 14 21 3 12 -7 35 -21 53 -30z m-1034 -20 c0 -29 -4 -48 -8 -42 -4 6 -15 13
-24 17 -12 4 -16 13 -12 24 5 14 4 15 -4 4 -6 -8 -17 -11 -28 -7 -15 6 -14 9
12 22 16 8 33 19 39 25 19 19 25 8 25 -43z m1105 41 c10 -15 -1 -23 -20 -15
-9 3 -13 10 -10 16 8 13 22 13 30 -1z m-1195 -65 c22 -9 40 -21 40 -27 0 -6 3
-7 7 -4 9 10 44 -24 36 -36 -3 -5 -1 -7 5 -3 6 3 13 2 17 -4 9 -15 -31 -12
-47 3 -7 8 -18 12 -23 10 -12 -4 -85 54 -85 68 0 12 3 12 50 -7z m291 -23
c-39 -35 -116 -69 -127 -58 -9 9 80 78 93 73 7 -3 13 -1 13 4 0 9 22 17 50 18
8 1 -5 -16 -29 -37z m615 13 c17 -8 44 -28 59 -44 25 -27 26 -30 9 -30 -25 1
-92 33 -124 60 -14 12 -18 19 -10 15 8 -4 6 1 -5 10 -19 17 -19 17 10 10 17
-3 44 -13 61 -21z m270 -9 c-45 -39 -51 -42 -60 -19 -7 19 2 37 15 29 5 -4 9
-2 9 4 0 10 21 18 55 20 16 1 12 -6 -19 -34z m-1254 -57 c-8 -22 -8 -35 0 -47
6 -10 8 -30 4 -46 -8 -31 -14 -29 -22 6 -14 58 -15 90 -3 126 12 36 12 37 22
15 8 -17 7 -33 -1 -54z m450 6 c3 -51 -11 -126 -23 -119 -4 3 -6 19 -2 35 4
21 2 30 -7 30 -9 0 -11 13 -6 52 4 28 10 56 13 61 9 15 22 -17 25 -59z m442
-26 c1 -54 -15 -91 -31 -75 -13 14 -15 124 -3 147 12 22 13 22 23 4 6 -10 11
-45 11 -76z m437 15 c0 -26 -2 -57 -4 -68 -3 -11 -6 -27 -6 -34 -1 -12 -4 -12
-13 -3 -15 15 -21 132 -7 132 6 0 8 4 5 9 -4 5 -3 17 0 26 11 28 25 -6 25 -62z
m-159 10 c-9 -7 -25 -13 -36 -13 -17 0 -18 2 -6 10 8 5 11 10 5 10 -5 0 1 9
15 20 23 17 25 18 31 2 4 -10 1 -22 -9 -29z m-217 -2 c14 -9 15 -11 3 -7 -12
3 -15 1 -11 -10 6 -16 15 -18 29 -5 5 5 18 5 29 1 17 -6 15 -8 -15 -15 -19 -5
-39 -8 -43 -7 -5 2 -6 -2 -3 -7 3 -5 0 -11 -8 -14 -11 -4 -15 7 -18 49 -2 38
0 50 7 41 6 -7 19 -19 30 -26z m-853 -12 l27 -14 -44 -22 -45 -22 0 51 c0 48
1 50 18 36 9 -9 29 -22 44 -29z m285 -55 c-2 -3 -23 6 -46 19 l-42 24 30 13
c17 7 36 19 43 28 11 13 13 8 16 -32 2 -27 1 -50 -1 -52z m880 0 c-2 -3 -24 7
-47 20 l-44 25 30 13 c16 7 36 19 44 27 13 13 15 9 18 -33 2 -27 1 -50 -1 -52z
m-1250 34 c-3 -8 -6 -5 -6 6 -1 11 2 17 5 13 3 -3 4 -12 1 -19z m161 -20 c-7
-19 -69 -59 -81 -51 -5 3 -7 2 -4 -4 6 -10 -63 -37 -72 -28 -6 7 47 53 82 71
24 13 31 13 45 2 13 -11 15 -11 9 5 -4 11 -1 17 9 17 9 0 14 -6 12 -12z m140
-8 c25 -11 46 -29 49 -40 3 -11 9 -18 13 -15 4 3 14 -3 21 -12 12 -15 12 -16
-4 -10 -11 4 -30 10 -43 13 -13 3 -24 10 -24 16 0 5 -4 7 -9 4 -4 -3 -26 10
-47 29 -32 28 -35 34 -19 34 11 0 40 -8 63 -19z m718 -16 c-60 -52 -163 -76
-110 -25 29 29 96 61 124 61 24 -1 24 -2 -14 -36z m163 16 c43 -20 99 -72 82
-78 -4 -1 -21 2 -37 8 -23 9 -25 13 -14 21 11 7 9 8 -10 5 -30 -4 -60 10 -56
27 1 6 1 9 -1 5 -8 -13 -23 -9 -23 6 0 8 -6 17 -12 19 -7 3 -4 6 7 6 11 0 40
-8 64 -19z m-970 -95 c0 -38 -4 -77 -10 -85 -8 -12 -9 -10 -4 9 5 17 4 22 -5
16 -8 -5 -11 -4 -6 3 3 6 2 13 -4 17 -13 8 -13 45 2 103 15 60 26 34 27 -63z
m882 6 c1 -30 -3 -57 -9 -59 -5 -1 -8 -13 -6 -25 3 -16 0 -14 -10 8 -18 35
-21 121 -5 130 6 4 8 13 5 20 -2 7 -2 16 2 19 11 12 23 -36 23 -93z m-500 8
l-6 -56 -43 23 -43 23 28 14 c15 8 37 24 47 36 11 12 20 20 21 19 1 -2 -1 -28
-4 -59z m-443 -36 l-3 -28 -22 23 c-13 12 -25 22 -28 21 -3 0 -11 2 -18 4 -18
8 14 28 33 21 8 -3 11 -2 7 2 -4 4 1 13 11 20 15 11 17 10 20 -12 2 -13 2 -36
0 -51z m131 54 c42 -24 42 -40 1 -49 -8 -2 -20 -10 -26 -18 -9 -11 -13 -3 -15
38 -2 29 -3 52 -3 52 1 0 21 -11 43 -23z m751 -29 c0 -33 -4 -48 -9 -40 -4 8
-12 14 -17 14 -5 0 -19 5 -31 11 -24 11 -32 30 -10 25 6 -2 22 7 35 20 12 12
24 22 27 22 3 0 5 -24 5 -52z m133 27 c20 -10 37 -22 37 -26 0 -6 -36 -19 -44
-16 -2 1 -14 -9 -26 -23 -12 -14 -18 -18 -14 -10 12 22 12 84 0 93 -15 12 2 5
47 -18z m-790 -59 c-23 -32 -70 -59 -85 -50 -6 4 -8 3 -4 -4 6 -10 -50 -29
-60 -19 -9 8 88 76 102 70 8 -3 14 0 14 5 0 6 10 13 23 15 12 2 23 5 25 6 2 0
-5 -10 -15 -23z m117 2 c0 -5 5 -6 10 -3 14 9 100 -50 100 -69 0 -30 -128 33
-150 74 -8 14 -5 16 15 12 14 -2 25 -9 25 -14z m303 -18 c-29 -28 -47 -38 -59
-33 -11 4 -15 2 -11 -4 8 -12 -15 -23 -46 -23 -52 1 92 94 153 99 3 0 -14 -17
-37 -39z m477 37 c0 -10 -39 -47 -49 -47 -6 0 -20 -9 -31 -20 -21 -21 -67 -37
-77 -26 -16 16 63 73 115 82 15 3 29 7 31 10 5 5 11 5 11 1z m-1200 -22 c14
-8 32 -17 40 -21 23 -11 53 -45 46 -52 -4 -3 -26 1 -49 10 -32 11 -42 20 -41
36 0 15 -3 19 -10 12 -7 -5 -21 -2 -36 10 l-25 20 25 0 c14 0 36 -7 50 -15z
m850 5 c0 -5 6 -7 14 -4 18 7 96 -44 96 -63 0 -8 -6 -13 -12 -10 -7 2 -12 10
-10 17 2 10 0 11 -10 3 -17 -14 -44 -3 -88 36 -32 28 -33 30 -12 31 12 0 22
-4 22 -10z m487 -22 c-3 -18 -11 -46 -18 -63 -6 -16 -13 -36 -15 -43 -9 -45
-116 -222 -135 -222 -5 0 -9 -5 -9 -11 0 -14 -100 -107 -122 -115 -10 -3 -18
-10 -18 -16 0 -6 -2 -9 -5 -6 -3 3 34 45 82 94 89 89 137 144 128 144 -3 0 6
18 20 39 20 32 66 157 81 219 7 27 16 10 11 -20z m-975 -63 c0 -34 -4 -64 -12
-85 -1 -3 -2 -9 0 -15 1 -5 -4 -5 -11 2 -14 14 -18 115 -5 158 l8 30 10 -25
c5 -14 9 -43 10 -65z m437 -63 l-12 -57 -13 40 c-16 52 -17 94 -2 136 l12 34
14 -48 c11 -39 11 -58 1 -105z m440 46 c1 -42 -3 -68 -10 -68 -5 0 -7 -6 -3
-12 5 -10 4 -10 -6 -1 -18 17 -25 121 -10 158 11 28 13 28 20 10 5 -11 9 -50
9 -87z m-1320 10 c-1 -100 -12 -126 -28 -67 -6 24 -10 55 -7 69 2 14 5 35 5
48 1 13 7 22 16 22 12 0 15 -14 14 -72z m500 24 c8 -2 26 -9 40 -17 l26 -13
-28 -11 c-16 -6 -33 -8 -39 -5 -6 4 -8 2 -5 -3 4 -6 -1 -17 -11 -26 -16 -15
-17 -12 -17 44 0 41 3 56 10 47 6 -7 16 -14 24 -16z m761 -22 c0 -27 -4 -50
-10 -50 -5 0 -10 8 -11 18 0 9 -3 12 -5 6 -4 -9 -13 -8 -34 3 -17 8 -30 17
-30 19 0 3 5 2 10 -1 6 -3 10 -2 10 4 0 10 38 27 53 23 4 -1 6 1 6 6 -2 12 1
22 6 22 3 0 5 -22 5 -50z m-1364 17 c1 -7 9 -29 18 -49 9 -21 13 -38 9 -38 -5
0 -13 12 -20 28 -16 37 -28 89 -17 79 4 -4 9 -13 10 -20z m164 3 c0 -5 14 -12
32 -15 l32 -7 -25 -13 c-13 -7 -27 -11 -30 -9 -4 2 -9 -3 -13 -11 -11 -30 -26
-14 -26 30 0 35 3 43 15 39 8 -4 15 -10 15 -14z m319 -31 c-3 -48 -4 -50 -18
-33 -9 11 -25 21 -36 22 -25 5 -45 22 -24 22 7 0 25 9 39 20 37 29 41 25 39
-31z m429 -6 c-9 -12 -10 -15 0 -9 8 5 12 0 12 -15 0 -20 -1 -21 -18 -6 -9 8
-30 21 -47 27 l-30 11 45 23 c43 22 45 22 48 4 2 -11 -2 -26 -10 -35z m121 41
c4 3 20 -3 35 -13 l28 -18 -35 -22 c-19 -11 -37 -21 -41 -21 -3 0 -6 21 -5 48
0 26 3 41 6 34 2 -6 8 -10 12 -8z m-770 -70 c-29 -31 -96 -67 -109 -59 -6 3
-10 1 -10 -4 0 -6 -8 -11 -17 -11 -14 0 -12 4 7 25 13 14 30 23 38 20 7 -2 11
-1 8 4 -10 16 39 41 98 50 5 0 -1 -11 -15 -25z m117 16 c9 0 12 -5 8 -11 -4
-7 -1 -10 7 -7 20 7 69 -20 69 -38 0 -8 4 -13 9 -10 5 3 14 -1 21 -9 16 -20
-8 -20 -53 -1 -35 14 -125 94 -94 83 10 -4 25 -7 33 -7z m324 -15 c-12 -13
-27 -22 -33 -18 -6 3 -7 1 -3 -5 7 -12 -45 -38 -92 -47 -25 -4 -25 -3 9 31 52
52 167 90 119 39z m100 14 c0 -5 4 -7 10 -4 12 7 70 -22 70 -35 0 -6 7 -10 15
-10 8 0 15 -7 15 -16 0 -8 4 -13 9 -9 5 3 12 1 16 -5 9 -15 -20 -12 -61 5 -23
9 -33 19 -28 26 5 8 2 10 -8 7 -9 -4 -26 4 -42 18 -30 28 -32 34 -11 34 8 0
15 -5 15 -11z m330 -24 c-13 -14 -32 -25 -42 -25 -10 0 -18 -4 -18 -9 0 -8
-52 -31 -72 -31 -14 0 15 38 36 48 12 5 24 9 28 8 4 0 13 7 20 16 12 15 56 29
67 21 3 -2 -6 -14 -19 -28z m175 3 c17 -9 40 -27 53 -41 l23 -24 -23 2 c-13 1
-30 3 -38 4 -12 1 -11 5 4 16 15 11 16 15 5 15 -8 0 -20 -5 -26 -11 -9 -9 -20
-4 -43 20 -17 17 -36 31 -41 31 -5 0 -9 4 -9 9 0 11 56 -1 95 -21z m-986 -90
c1 -44 -2 -68 -9 -68 -6 0 -8 -6 -4 -12 5 -9 4 -10 -4 -3 -6 6 -14 36 -18 67
-6 48 -4 59 10 64 9 3 16 10 16 16 0 5 -4 6 -10 3 -11 -7 -14 18 -3 29 12 12
20 -25 22 -96z m438 65 c9 -68 9 -90 -2 -127 l-11 -40 -14 47 c-7 28 -10 66
-6 93 9 71 25 83 33 27z m443 -46 c1 -23 -1 -51 -4 -62 -2 -11 -5 -27 -6 -35
0 -11 -3 -10 -12 4 -16 29 -20 116 -6 150 11 28 12 28 20 7 4 -13 8 -41 8 -64z
m-1187 0 c14 -26 21 -47 18 -47 -4 0 -19 26 -35 58 -15 31 -23 52 -17 47 6 -6
21 -32 34 -58z m40 7 c11 -21 13 -34 6 -32 -13 4 -42 68 -30 68 4 0 15 -16 24
-36z m206 -19 l2 -54 -41 26 c-38 25 -40 29 -24 40 10 7 23 13 28 13 6 0 4 -5
-4 -11 -13 -9 -13 -10 0 -6 8 2 15 8 15 13 0 9 14 34 19 34 1 0 4 -25 5 -55z
m153 14 l27 -14 -49 -27 -48 -27 8 28 c4 15 5 41 2 57 -5 28 -4 28 14 13 10
-9 31 -23 46 -30z m288 -16 c0 -32 -4 -53 -8 -47 -4 5 -27 20 -52 32 -25 12
-38 22 -30 23 8 0 31 11 50 24 19 13 36 24 38 24 1 1 2 -25 2 -56z m106 43 c3
-8 16 -17 30 -20 13 -4 24 -10 24 -16 0 -7 -33 -34 -65 -52 -6 -4 -10 15 -10
48 0 52 10 70 21 40z m333 -42 l2 -55 -34 25 c-19 14 -42 26 -53 26 -11 0 -2
8 22 19 23 10 45 24 48 30 11 18 13 14 15 -45z m107 45 c3 -6 25 -20 48 -30
23 -11 33 -19 22 -19 -10 0 -33 -9 -51 -20 l-33 -20 -4 50 c-3 48 3 62 18 39z
m-1116 -71 c0 -10 3 -9 9 1 6 9 11 10 15 2 4 -6 11 -9 16 -6 5 3 18 -3 30 -15
11 -11 20 -18 20 -15 0 3 9 -3 20 -12 42 -36 12 -45 -48 -14 -40 21 -93 71
-74 71 7 0 12 -6 12 -12z m349 -14 c-33 -36 -96 -66 -120 -59 -19 6 -19 7 3
24 13 10 30 21 38 25 8 4 26 13 40 21 14 8 34 15 44 15 18 0 18 -2 -5 -26z
m115 19 c7 -8 11 -9 37 -12 5 0 7 -5 4 -11 -3 -5 0 -7 7 -5 7 3 28 -10 45 -29
l32 -34 -39 10 c-22 6 -37 14 -34 19 3 5 -2 6 -10 3 -8 -3 -30 9 -53 30 -33
31 -35 35 -17 36 11 0 24 -3 28 -7z m324 -14 c-18 -28 -75 -62 -89 -53 -8 5
-9 3 -4 -6 6 -10 3 -12 -13 -8 -12 3 -23 1 -25 -6 -2 -6 -8 -8 -12 -4 -17 16
94 96 115 83 6 -3 10 -1 10 4 0 6 7 11 15 11 13 0 13 -3 3 -21z m155 -2 c46
-25 49 -28 36 -43 -9 -12 -9 -13 2 -9 8 3 23 -1 34 -10 19 -15 18 -15 -10 -9
-44 10 -84 32 -119 66 l-31 30 33 -7 c18 -4 43 -12 55 -18z m289 9 c1 -16 -77
-67 -116 -76 -20 -4 -36 -4 -36 1 0 5 8 9 17 9 9 0 13 3 10 7 -6 6 35 41 41
35 1 -2 10 4 19 13 8 9 22 14 30 11 8 -4 11 -1 7 5 -4 7 0 10 10 7 10 -1 17
-7 18 -12z m-1248 -46 c20 -28 36 -52 36 -55 0 -10 -46 39 -69 73 -36 52 -6
36 33 -18z m424 -27 c-2 -17 0 -29 5 -26 5 3 7 -3 4 -13 -3 -11 -8 -34 -12
-52 -4 -18 -11 -29 -17 -26 -5 3 -8 15 -5 25 3 10 1 22 -4 25 -13 7 -11 84 2
84 5 0 7 5 4 10 -3 6 -3 20 1 32 l7 23 9 -25 c5 -14 8 -39 6 -57z m451 -25 c1
-16 -3 -28 -9 -28 -5 0 -7 -6 -4 -13 2 -7 1 -24 -4 -37 -9 -24 -9 -23 -20 10
-13 44 -13 84 0 135 l11 40 13 -40 c7 -22 13 -52 13 -67z m-931 61 c19 -30 8
-34 -12 -4 -9 14 -13 25 -9 25 5 0 14 -9 21 -21z m525 -32 c-3 -5 -2 -7 4 -4
10 6 63 -13 63 -23 0 -3 -20 -17 -45 -32 -35 -22 -45 -24 -45 -12 0 8 5 12 10
9 7 -4 9 2 6 17 -15 65 -15 80 -1 68 8 -7 12 -17 8 -23z m-103 -28 l0 -50 -30
18 c-33 19 -43 60 -13 49 10 -4 14 -4 10 0 -5 5 19 32 31 34 1 0 2 -23 2 -51z
m437 1 c0 -27 -3 -50 -5 -50 -2 0 -16 8 -30 19 -15 10 -34 20 -42 23 -11 4 -6
9 15 19 17 8 36 19 43 26 20 19 21 17 19 -37z m140 18 l35 -21 -23 -12 c-13
-7 -30 -10 -38 -7 -9 3 -12 1 -7 -6 3 -6 3 -13 -2 -16 -5 -3 -9 15 -11 40 -1
24 1 44 5 44 4 0 22 -10 41 -22z m-848 -15 c9 -2 33 -6 54 -10 36 -5 64 -33
49 -48 -4 -3 -2 -5 3 -4 15 5 96 -57 87 -66 -4 -5 -2 -5 5 -2 24 14 108 -18
146 -56 20 -20 37 -38 37 -40 0 -1 -11 -4 -25 -5 -14 -1 -25 3 -25 9 0 5 -4 7
-10 4 -5 -3 -10 -2 -10 2 0 5 -8 9 -17 10 -31 3 -74 23 -69 32 4 5 -3 7 -14 4
-12 -3 -20 0 -20 6 0 7 -4 10 -9 7 -21 -13 -176 107 -164 127 3 6 2 7 -4 4 -5
-4 -23 8 -39 25 -16 18 -21 26 -10 18 10 -8 25 -16 35 -17z m1081 -19 c-80
-82 -177 -144 -296 -189 -48 -19 -64 -21 -74 -12 -10 9 -11 9 -6 0 4 -7 2 -13
-3 -13 -18 0 -13 10 25 50 22 23 48 40 68 43 18 3 50 13 72 23 21 9 42 16 47
16 4 -1 7 6 7 15 0 9 3 13 7 10 3 -4 17 8 30 26 14 19 34 33 48 34 13 1 43 11
67 22 24 10 45 20 48 20 2 1 -16 -20 -40 -45z m-1191 19 c12 -21 92 -101 139
-139 18 -15 31 -29 28 -31 -6 -6 -23 7 -100 82 -77 74 -102 105 -88 105 6 0
16 -8 21 -17z m121 -73 c30 -27 52 -51 49 -54 -3 -3 -32 19 -64 49 -33 30 -55
55 -50 55 6 -1 35 -23 65 -50z m188 31 c45 -23 87 -59 79 -67 -12 -12 -70 9
-74 27 -3 10 -10 19 -15 19 -5 0 -6 -5 -2 -11 10 -18 -28 6 -50 30 -19 21 -19
21 3 21 12 0 38 -9 59 -19z m280 -11 c-18 -16 -36 -30 -40 -30 -16 0 -23 -2
-33 -9 -22 -17 -42 -19 -42 -4 0 21 85 73 120 73 l28 0 -33 -30z m170 6 c20
-13 46 -34 57 -46 l20 -23 -33 6 c-37 7 -105 50 -95 60 3 4 -1 7 -10 7 -9 0
-19 5 -22 10 -12 19 46 10 83 -14z m282 13 c0 -13 -22 -32 -63 -55 -23 -12
-31 -13 -43 -3 -12 10 -15 10 -12 -1 2 -8 -6 -15 -17 -17 -31 -6 48 62 87 75
45 14 48 14 48 1z m-381 -90 c-4 -16 -3 -31 4 -38 8 -8 6 -11 -8 -11 -13 0
-16 -3 -8 -8 7 -5 10 -17 6 -32 -6 -23 -7 -23 -19 10 -16 45 -17 85 -3 135
l12 40 12 -35 c7 -20 9 -46 4 -61z m-59 1 c0 -27 -4 -50 -10 -50 -5 0 -10 7
-10 16 0 8 -4 13 -9 9 -6 -3 -25 1 -43 9 -28 12 -30 14 -10 15 13 1 35 12 50
26 15 14 28 25 29 25 2 0 3 -22 3 -50z m130 9 c0 -5 3 -8 8 -8 27 4 34 -1 21
-17 -7 -8 -21 -13 -32 -10 -10 2 -16 2 -13 -1 7 -7 -13 -33 -26 -33 -5 0 -5 6
0 16 5 9 6 33 2 54 l-7 39 23 -16 c13 -8 24 -19 24 -24z m-440 -76 c78 -38
124 -56 149 -59 13 -2 31 -6 40 -10 22 -9 32 -10 139 -12 62 -1 92 -6 92 -14
0 -24 -274 9 -338 41 -10 5 -44 21 -77 36 -70 32 -115 62 -115 77 0 6 15 0 33
-14 17 -13 52 -33 77 -45z m218 32 c12 -3 22 -11 22 -16 0 -6 4 -8 9 -5 4 3
26 -10 47 -29 36 -32 37 -34 14 -31 -14 3 -25 5 -25 6 0 1 -7 3 -15 5 -28 5
-90 47 -101 67 -11 21 -14 21 49 3z m293 -27 c-18 -16 -37 -26 -43 -22 -7 4
-8 3 -4 -4 4 -7 -9 -15 -35 -22 -22 -6 -43 -10 -45 -7 -9 8 60 63 99 78 56 22
68 12 28 -23z m279 32 c0 -5 -10 -15 -22 -21 -23 -12 -23 -12 -4 10 21 23 26
26 26 11z m-50 -35 c0 -5 -54 -30 -110 -51 -54 -20 -49 -7 6 16 27 11 56 24
64 29 16 11 40 14 40 6z m-170 -65 c0 -5 -5 -10 -11 -10 -5 0 -7 5 -4 10 3 6
8 10 11 10 2 0 4 -4 4 -10z m-50 -21 c-14 -4 -36 -7 -50 -7 -19 0 -15 3 15 13
22 7 44 10 50 7 5 -4 -1 -9 -15 -13z"/>
<path d="M1640 2226 c0 -2 7 -7 16 -10 8 -3 12 -2 9 4 -6 10 -25 14 -25 6z"/>
<path d="M1606 2176 c10 -8 21 -12 24 -10 5 6 -21 24 -34 24 -6 0 -1 -6 10
-14z"/>
<path d="M1608 1663 c7 -3 16 -2 19 1 4 3 -2 6 -13 5 -11 0 -14 -3 -6 -6z"/>
<path d="M1550 1595 c-6 -8 -10 -19 -8 -24 1 -6 8 1 15 14 13 28 11 31 -7 10z"/>
<path d="M1500 1569 c0 -5 5 -7 10 -4 6 3 10 8 10 11 0 2 -4 4 -10 4 -5 0 -10
-5 -10 -11z"/>
<path d="M945 1610 c3 -5 8 -10 11 -10 2 0 4 5 4 10 0 6 -5 10 -11 10 -5 0 -7
-4 -4 -10z"/>
<path d="M1830 1470 c0 -5 5 -10 10 -10 6 0 10 5 10 10 0 6 -4 10 -10 10 -5 0
-10 -4 -10 -10z"/>
<path d="M2050 1225 c0 -8 2 -15 4 -15 2 0 6 7 10 15 3 8 1 15 -4 15 -6 0 -10
-7 -10 -15z"/>
<path d="M1735 850 c3 -5 8 -10 11 -10 2 0 4 5 4 10 0 6 -5 10 -11 10 -5 0 -7
-4 -4 -10z"/>
<path d="M2436 2379 c-29 -23 -34 -59 -11 -99 21 -37 19 -52 -7 -48 -17 2 -23
10 -24 28 -1 59 -36 81 -54 35 -7 -19 -6 -36 4 -60 29 -68 101 -85 139 -32
l21 27 -21 51 c-19 44 -20 51 -6 56 18 7 32 -12 26 -36 -2 -9 5 -25 17 -36 18
-16 23 -17 30 -5 13 20 12 67 0 91 -10 18 -59 49 -78 49 -5 0 -21 -9 -36 -21z"/>
<path d="M568 2342 c-41 -25 -62 -75 -48 -116 17 -51 61 -87 114 -93 42 -5 48
-3 82 31 33 33 36 40 31 77 -6 47 -37 85 -84 105 -42 18 -62 17 -95 -4z m92
-68 c42 -36 39 -78 -6 -82 -53 -5 -105 63 -72 96 19 19 44 14 78 -14z"/>
<path d="M340 2180 c-18 -34 26 -94 49 -66 10 11 9 21 -3 45 -21 40 -33 46
-46 21z"/>
<path d="M2529 2183 c-54 -33 -73 -97 -45 -152 21 -40 94 -68 111 -41 10 15
-14 50 -34 50 -24 0 -44 24 -39 47 3 18 62 63 84 63 26 0 46 -32 40 -65 -4
-19 -1 -38 7 -49 13 -18 15 -18 30 5 28 38 22 96 -12 130 -24 23 -38 29 -73
29 -24 0 -55 -8 -69 -17z"/>
<path d="M402 2105 c-18 -36 -32 -68 -32 -70 0 -6 201 -107 205 -103 5 6 65
127 65 132 0 3 -9 10 -19 16 -17 9 -23 4 -42 -30 -34 -61 -75 -50 -43 11 15
31 15 33 -2 46 -16 12 -20 10 -36 -22 -17 -32 -36 -43 -51 -29 -3 3 4 26 16
51 19 38 19 45 7 53 -27 17 -35 11 -68 -55z"/>
<path d="M2540 1937 c0 -3 4 -17 10 -31 7 -19 17 -26 35 -26 38 0 53 -45 26
-74 -22 -24 -19 -71 5 -62 7 3 51 35 99 72 71 56 84 71 79 88 -4 12 -8 23 -11
25 -6 7 -243 14 -243 8z m160 -67 c-18 -13 -27 -15 -32 -7 -7 12 14 25 42 26
10 0 6 -6 -10 -19z"/>
<path d="M500 1875 c-8 -29 -17 -44 -25 -41 -7 2 -45 14 -85 26 -59 18 -74 19
-81 8 -19 -28 -2 -42 96 -75 54 -18 102 -33 105 -33 7 0 54 140 48 145 -1 1
-13 5 -24 9 -18 6 -23 0 -34 -39z"/>
<path d="M277 1747 c-3 -8 -8 -43 -12 -79 l-7 -65 94 -12 c51 -7 103 -15 114
-18 20 -4 22 1 28 54 4 32 10 68 12 79 4 17 0 22 -20 26 -27 5 -31 -1 -38 -62
-2 -17 -10 -26 -25 -28 -22 -3 -22 -1 -16 43 6 45 5 47 -18 43 -20 -2 -25 -10
-27 -40 -3 -31 -7 -38 -24 -38 -19 0 -20 4 -14 55 6 53 5 55 -18 55 -13 0 -26
-6 -29 -13z"/>
<path d="M2800 1744 c-8 -1 -55 -8 -104 -15 l-88 -11 7 -57 c9 -82 13 -91 41
-91 24 0 24 2 18 49 l-6 48 53 7 c116 15 119 16 119 47 0 28 -5 31 -40 23z"/>
</g>
</svg>
