<?xml version="1.0" standalone="no"?>
<!DOCTYPE svg PUBLIC "-//W3C//DTD SVG 20010904//EN"
 "http://www.w3.org/TR/2001/REC-SVG-20010904/DTD/svg10.dtd">
<svg version="1.0" xmlns="http://www.w3.org/2000/svg"
 width="313.000000pt" height="313.000000pt" viewBox="0 0 313.000000 313.000000"
 preserveAspectRatio="xMidYMid meet">
<metadata>
Created by potrace 1.14, written by Peter Selinger 2001-2017
</metadata>
<g transform="translate(0.000000,313.000000) scale(0.100000,-0.100000)"
fill="#000000" stroke="none">
<path d="M1440 3099 c-374 -26 -714 -188 -985 -470 -610 -635 -552 -1659 125
-2222 204 -169 444 -283 705 -334 126 -24 415 -24 540 0 335 67 614 219 844
463 190 201 325 460 387 744 15 68 19 126 18 295 0 194 -2 219 -28 330 -119
511 -460 909 -941 1098 -205 81 -425 113 -665 96z m323 -70 c334 -50 620 -198
853 -441 185 -193 306 -420 370 -693 25 -109 28 -138 28 -315 1 -169 -2 -209
-22 -299 -140 -626 -626 -1074 -1256 -1157 -342 -46 -696 39 -996 238 -131 87
-308 263 -393 393 -175 265 -249 512 -251 830 -1 232 42 425 139 623 214 439
597 729 1080 816 96 17 348 20 448 5z"/>
<path d="M1677 2863 c-12 -39 -28 -175 -23 -189 3 -8 14 -14 25 -14 16 0 21
10 28 63 l8 62 24 -65 c27 -70 35 -80 67 -80 19 0 23 9 34 83 6 45 14 92 17
104 3 16 -1 23 -17 28 -28 9 -36 -3 -45 -69 l-7 -51 -25 65 c-29 76 -22 67
-55 75 -20 5 -27 3 -31 -12z"/>
<path d="M1261 2846 c-91 -50 -52 -206 52 -206 78 0 121 84 82 160 -29 56 -83
74 -134 46z m85 -76 c14 -43 4 -74 -27 -78 -30 -5 -49 22 -49 68 0 44 6 52 40
48 19 -2 28 -12 36 -38z"/>
<path d="M848 2769 c-18 -10 -27 -79 -10 -79 22 1 33 20 30 53 -3 31 -5 34
-20 26z"/>
<path d="M868 2684 c-32 -20 -58 -40 -58 -46 0 -8 86 -152 106 -176 1 -3 85
48 123 75 3 2 -2 11 -11 20 -15 14 -19 14 -53 -7 -31 -19 -39 -20 -46 -9 -11
17 -11 29 -1 29 4 0 18 9 32 19 20 16 22 22 11 34 -11 14 -16 13 -45 -4 -29
-17 -35 -17 -45 -5 -10 12 -5 19 28 41 36 22 40 28 31 45 -6 11 -12 20 -13 20
-1 0 -28 -17 -59 -36z"/>
<path d="M2116 2699 c-63 -50 -72 -115 -22 -165 54 -54 122 -39 161 36 51 98
-54 196 -139 129z m94 -48 c20 -39 -30 -109 -69 -96 -16 5 -21 15 -21 39 0 59
66 101 90 57z"/>
<path d="M2450 2404 c-99 -83 -97 -81 -78 -100 15 -15 19 -15 46 4 37 27 45
19 26 -27 -12 -29 -13 -40 -3 -58 17 -32 24 -29 39 16 11 34 17 39 41 39 52
-2 91 52 68 94 -15 29 -62 88 -69 87 -3 0 -34 -25 -70 -55z m88 -38 c12 -26 7
-36 -18 -36 -29 0 -42 22 -23 42 21 24 28 23 41 -6z"/>
<path d="M522 2368 c-7 -7 -12 -17 -12 -24 0 -12 144 -129 159 -129 12 0 81
87 81 101 0 27 -32 23 -58 -7 l-27 -31 -64 51 c-35 28 -64 51 -65 51 -1 0 -7
-5 -14 -12z"/>
<path d="M1413 2369 c-264 -40 -506 -226 -618 -473 -55 -122 -69 -186 -69
-331 0 -148 16 -225 70 -343 120 -262 360 -435 655 -472 219 -28 462 52 641
209 95 84 197 250 231 376 121 445 -132 892 -573 1015 -88 24 -247 33 -337 19z
m362 -49 c254 -80 449 -280 531 -545 25 -81 27 -344 2 -421 -91 -286 -275
-470 -562 -563 -71 -22 -338 -22 -416 1 -216 63 -403 216 -501 410 -56 110
-79 216 -79 357 1 134 12 198 53 299 42 106 88 173 182 268 80 81 103 98 195
142 58 28 128 57 155 63 131 31 323 26 440 -11z"/>
<path d="M1390 2325 c-492 -101 -769 -635 -560 -1082 43 -93 80 -148 142 -214
152 -162 344 -243 573 -243 202 1 374 69 520 207 170 158 249 340 247 567 -1
169 -32 279 -116 413 -169 272 -497 415 -806 352z m120 -24 c0 -24 -116 -91
-156 -91 -28 0 21 46 80 75 53 26 76 31 76 16z m111 -5 c37 -13 109 -65 109
-78 0 -26 -109 23 -149 66 -28 29 -17 33 40 12z m-271 -45 c-37 -36 -60 -50
-90 -55 -48 -8 -107 -42 -142 -84 -14 -17 -40 -33 -59 -37 -19 -4 -49 -13 -67
-21 -30 -12 -32 -12 -22 5 13 26 116 113 177 150 58 36 196 90 231 91 19 0 15
-7 -28 -49z m440 23 c121 -43 254 -134 320 -218 15 -18 14 -19 -15 -4 -16 8
-48 19 -70 23 -28 5 -48 17 -67 40 -31 37 -119 85 -155 85 -15 0 -44 19 -76
50 -44 42 -49 50 -30 50 12 0 54 -12 93 -26z m-235 -38 c7 -50 1 -108 -13
-130 -10 -17 -21 27 -21 84 -1 105 23 137 34 46z m-58 -39 l-1 -54 -51 26 -50
26 50 27 c28 14 51 27 52 27 1 1 1 -23 0 -52z m146 -19 c-19 -10 -41 -22 -49
-29 -12 -10 -14 -2 -14 44 l0 55 49 -26 50 -27 -36 -17z m-353 -3 c0 -8 -55
-56 -80 -69 -14 -8 -41 -17 -60 -21 l-35 -7 29 31 c32 33 100 71 129 71 9 0
17 -2 17 -5z m123 -11 c42 -22 97 -63 97 -73 0 -26 -116 26 -155 69 -18 20
-18 20 4 20 12 0 36 -7 54 -16z m311 4 c-11 -29 -138 -98 -152 -83 -3 3 5 17
19 31 40 44 147 85 133 52z m131 -7 c42 -19 102 -68 94 -76 -10 -10 -78 16
-118 45 -65 48 -52 66 24 31z m-521 -23 c9 -37 7 -114 -5 -145 l-11 -28 -10
25 c-18 48 -10 170 12 170 4 0 10 -10 14 -22z m441 -66 c0 -37 -4 -76 -9 -87
l-8 -20 -8 20 c-10 24 -13 137 -4 160 13 34 29 -6 29 -73z m-495 -2 l0 -59
-36 24 c-20 14 -41 25 -45 25 -5 0 -9 5 -9 10 0 6 6 10 13 10 6 0 26 11 42 25
17 13 31 24 33 25 1 0 2 -27 2 -60z m437 0 c0 -55 -2 -59 -16 -45 -9 8 -32 21
-50 28 l-34 15 36 17 c20 9 41 23 48 31 6 8 12 14 14 14 1 0 2 -27 2 -60z
m-320 30 c14 -11 32 -20 39 -20 8 0 14 -4 14 -10 0 -5 -4 -10 -9 -10 -4 0 -25
-11 -45 -25 l-36 -24 0 54 c0 30 3 55 6 55 3 0 17 -9 31 -20z m493 -31 c0 -4
-34 -24 -82 -47 -5 -2 -8 19 -8 47 l0 51 45 -22 c24 -13 45 -26 45 -29z m-836
-40 c-33 -36 -63 -52 -118 -68 l-39 -10 29 30 c40 42 74 59 153 78 3 1 -8 -13
-25 -30z m151 3 c32 -15 85 -61 85 -73 0 -4 -17 -3 -37 3 -42 11 -105 53 -122
81 -10 16 -8 17 16 11 16 -4 42 -13 58 -22z m724 -8 c-29 -31 -71 -54 -118
-65 l-34 -7 38 38 c32 33 122 76 134 64 3 -2 -6 -16 -20 -30z m-440 0 c-28
-31 -71 -54 -116 -65 -39 -8 -38 -8 -15 19 26 30 102 72 131 72 l24 0 -24 -26z
m156 7 c22 -10 51 -30 64 -45 l24 -26 -22 0 c-30 0 -91 32 -120 64 -23 24 -23
26 -5 26 10 0 37 -9 59 -19z m438 3 c34 -17 87 -63 87 -75 0 -25 -142 47 -154
79 -7 17 29 15 67 -4z m-966 -52 c6 -48 -4 -132 -17 -132 -17 0 -29 93 -18
143 13 54 27 50 35 -11z m438 -42 c0 -79 -9 -106 -25 -80 -11 17 -13 123 -4
158 13 46 29 2 29 -78z m444 0 c0 -30 -6 -66 -13 -79 l-13 -23 -6 23 c-4 13
-7 49 -7 79 0 30 3 66 7 79 l6 23 13 -23 c7 -13 13 -49 13 -79z m-942 5 c-1
-30 -4 -54 -7 -52 -3 1 -22 13 -43 26 l-37 23 42 28 c24 16 44 29 45 29 1 1 1
-24 0 -54z m163 7 c20 -7 17 -11 -29 -35 l-51 -26 0 55 0 55 29 -20 c16 -12
39 -25 51 -29z m278 -7 c-1 -51 -9 -68 -23 -45 -3 5 -22 17 -41 26 l-36 17 29
12 c15 7 37 20 48 29 11 8 21 16 22 16 1 0 1 -25 1 -55z m162 5 c17 0 7 -10
-42 -39 l-37 -22 0 56 0 55 33 -25 c18 -14 39 -25 46 -25z m275 -5 c0 -30 -1
-55 -1 -55 -1 0 -23 12 -49 26 l-47 27 28 12 c21 10 69 40 69 45 0 0 0 -25 0
-55z m153 12 l32 -13 -50 -27 -50 -27 0 57 c0 53 1 55 18 40 10 -9 32 -22 50
-30z m-1126 -42 c25 -9 60 -32 79 -52 l34 -36 -30 7 c-48 12 -90 35 -120 66
-33 34 -27 36 37 15z m301 -24 c-39 -35 -118 -69 -131 -57 -17 18 109 96 152
96 18 -1 14 -7 -21 -39z m149 20 c43 -19 104 -69 95 -78 -12 -12 -93 24 -130
58 -48 43 -35 51 35 20z m318 10 c0 -27 -140 -105 -157 -88 -11 12 28 46 81
72 54 26 76 31 76 16z m122 -11 c47 -21 104 -67 94 -77 -13 -13 -86 19 -127
57 -50 44 -37 52 33 20z m318 11 c0 -28 -112 -91 -160 -91 -24 0 31 49 84 75
53 26 76 31 76 16z m-1272 -88 c2 -32 -2 -71 -8 -88 -11 -28 -13 -28 -20 -10
-10 25 -12 101 -4 144 10 48 27 22 32 -46z m438 41 c6 -34 -2 -143 -11 -153
-11 -10 -19 12 -23 64 -8 99 19 170 34 89z m442 -41 c4 -65 -13 -127 -28 -103
-11 17 -13 123 -4 158 11 38 27 9 32 -55z m440 3 c2 -30 -1 -70 -9 -92 l-13
-39 -12 55 c-10 40 -10 67 -2 103 13 62 29 50 36 -27z m-1235 -4 l36 -17 -50
-27 -49 -26 0 55 c0 46 2 54 14 44 8 -7 30 -19 49 -29z m297 -17 l0 -55 -49
27 -49 28 47 27 c25 15 47 27 49 27 1 1 2 -24 2 -54z m158 10 l24 -7 -24 -12
c-12 -7 -35 -20 -50 -30 l-28 -18 0 57 0 56 28 -19 c15 -11 38 -23 50 -27z
m278 -9 l0 -54 -47 26 -47 27 47 27 c25 15 46 27 46 27 1 1 1 -23 1 -53z m154
12 c35 -15 35 -15 10 -23 -14 -4 -37 -16 -52 -27 l-28 -19 0 57 c0 54 1 56 18
41 9 -8 33 -22 52 -29z m285 -12 l0 -53 -46 26 -47 26 47 27 c25 15 46 27 46
27 0 1 0 -23 0 -53z m120 -86 c32 -134 25 -286 -19 -405 l-15 -40 0 37 c-1 21
-8 55 -16 76 -14 34 -14 42 0 75 19 46 19 134 0 180 -13 31 -13 40 0 71 8 19
15 52 16 73 0 36 1 37 11 13 5 -14 16 -50 23 -80z m-1427 -84 c-16 -51 -16
-132 1 -174 14 -32 13 -38 -17 -147 -8 -32 -28 38 -43 149 -13 99 -5 207 23
299 l12 41 19 -64 c17 -56 17 -69 5 -104z m216 141 c-12 -32 -137 -98 -153
-81 -9 10 66 70 101 82 46 14 58 14 52 -1z m117 2 c36 -11 135 -89 113 -89
-31 0 -108 36 -141 66 -39 36 -33 41 28 23z m323 -3 c-12 -30 -144 -99 -160
-83 -9 8 72 70 107 83 46 17 59 17 53 0z m138 -5 c32 -13 94 -68 86 -76 -11
-11 -72 13 -117 46 -65 46 -49 61 31 30z m308 12 c0 -15 -70 -64 -111 -78 -60
-21 -66 -19 -34 15 42 44 145 89 145 63z m134 -14 c46 -21 94 -65 83 -75 -12
-12 -100 28 -136 62 -33 31 -34 33 -13 34 12 0 42 -9 66 -21z m-84 -86 c0 -28
-5 -64 -11 -80 -10 -26 -12 -27 -19 -8 -10 24 -12 131 -3 164 l6 23 13 -23 c7
-13 13 -47 14 -76z m-884 42 c7 -50 -3 -135 -15 -135 -12 0 -21 38 -21 90 0
92 24 122 36 45z m439 -2 c10 -71 18 -84 24 -37 l6 42 50 -29 c28 -16 42 -29
33 -29 -9 0 -30 -11 -45 -25 l-28 -25 45 19 c25 10 58 22 75 26 l29 6 -19 -22
c-11 -12 -38 -35 -59 -50 -43 -32 -29 -40 19 -11 l30 19 0 -58 0 -57 -25 18
c-14 9 -36 21 -50 25 -16 5 -7 -6 27 -31 88 -65 74 -85 -26 -39 -59 28 -54 7
5 -23 l33 -17 -49 -26 -50 -27 0 47 c0 81 -17 79 -22 -3 -8 -115 -24 -118 -44
-9 l-12 68 -1 -60 c-1 -33 -5 -55 -9 -48 -4 6 -27 22 -50 36 l-43 24 30 12
c16 7 40 24 53 38 22 24 22 24 -38 -6 -104 -52 -127 -30 -32 31 56 37 50 49
-10 19 l-40 -20 0 49 c0 28 1 50 2 50 1 0 19 -9 41 -20 50 -25 82 -26 35 0
-19 10 -51 35 -70 55 -33 35 -34 37 -10 30 14 -3 51 -19 83 -34 l58 -28 -23
25 c-13 13 -36 30 -53 38 l-30 13 37 15 c20 9 39 20 43 26 14 22 25 8 26 -32
1 -27 3 -34 6 -18 9 55 24 100 33 100 5 0 12 -21 15 -47z m-499 -43 c-1 -27
-2 -50 -4 -50 -8 0 -82 46 -81 50 0 3 19 15 42 27 23 12 42 22 43 22 0 1 0
-21 0 -49z m169 -2 c5 -5 5 -8 -2 -8 -5 0 -27 -11 -47 -25 l-36 -24 0 55 0 56
38 -23 c20 -12 41 -26 47 -31z m710 -2 c0 -40 -3 -52 -11 -45 -7 5 -29 18 -50
28 l-37 18 36 18 c21 10 40 21 43 26 12 21 19 5 19 -45z m170 2 c5 -5 5 -8 -2
-8 -5 0 -27 -11 -47 -25 l-36 -24 0 55 0 56 38 -23 c20 -12 41 -26 47 -31z
m-835 -43 c-23 -25 -83 -57 -130 -70 -24 -7 -23 -5 10 29 30 32 128 81 139 70
3 -2 -6 -15 -19 -29z m596 4 c42 -20 107 -79 86 -79 -42 0 -145 58 -163 92
-10 18 -8 19 13 13 12 -4 41 -15 64 -26z m289 1 c-32 -34 -127 -84 -146 -78
-26 9 69 80 131 99 43 13 45 10 15 -21z m-1170 0 c47 -23 107 -80 84 -80 -35
0 -159 74 -159 95 0 11 37 4 75 -15z m-87 -74 c5 -71 -14 -129 -29 -91 -10 25
-11 102 -3 144 10 50 27 21 32 -53z m877 -16 c0 -79 -9 -106 -25 -80 -11 17
-13 123 -4 158 13 46 29 2 29 -78z m442 -18 c-6 -75 -21 -100 -32 -51 -9 39
-9 100 1 142 l6 31 15 -29 c11 -20 14 -47 10 -93z m-881 63 c7 -50 -3 -135
-16 -135 -13 0 -20 29 -20 90 0 96 23 126 36 45z m-58 -44 l0 -60 -21 20 c-12
11 -32 22 -44 25 -31 8 -29 19 7 34 16 7 35 18 41 26 6 8 13 14 14 14 2 0 3
-27 3 -59z m605 6 c14 -5 14 -6 -40 -35 l-43 -23 0 55 0 55 35 -24 c20 -13 41
-26 48 -28z m272 -5 l0 -58 -33 22 c-18 13 -38 25 -45 28 -9 5 -9 7 0 12 11 5
78 51 78 53 0 1 0 -25 0 -57z m-1206 34 c7 -8 24 -17 38 -21 29 -7 26 -11 -29
-44 l-38 -23 0 51 c0 52 8 62 29 37z m101 -81 c-27 -29 -105 -67 -128 -63 -27
5 47 67 98 82 25 7 47 12 49 10 3 -2 -6 -15 -19 -29z m155 9 c17 -8 44 -26 60
-41 23 -22 26 -29 13 -31 -25 -5 -102 35 -134 70 l-29 31 30 -7 c17 -4 44 -14
60 -22z m745 17 c0 -30 -139 -106 -158 -87 -11 12 56 63 102 80 50 18 56 18
56 7z m136 -17 c17 -8 44 -28 59 -44 25 -27 26 -30 9 -30 -32 1 -97 36 -129
70 l-30 33 30 -7 c17 -4 44 -14 61 -22z m-971 -94 c0 -71 -7 -102 -20 -88 -12
12 -20 96 -13 128 5 19 9 41 10 48 1 9 4 10 12 2 6 -6 11 -46 11 -90z m883 23
c2 -32 -2 -71 -8 -88 -11 -28 -13 -28 -20 -10 -10 24 -13 137 -4 160 12 30 27
-2 32 -62z m-942 -16 l0 -53 -47 25 -46 25 36 19 c20 10 40 23 46 28 5 5 9 9
10 9 0 0 1 -24 1 -53z m173 3 c9 -1 -1 -9 -23 -20 -21 -11 -44 -24 -52 -31
-12 -10 -14 -2 -14 44 l0 56 36 -24 c20 -14 44 -25 53 -25z m706 -4 l0 -53
-46 26 -47 26 47 27 c25 15 46 27 46 27 0 1 0 -23 0 -53z m174 4 c9 -1 -1 -9
-23 -20 -21 -11 -44 -24 -52 -31 -12 -10 -14 -2 -14 44 l0 56 36 -24 c20 -14
44 -25 53 -25z m-1103 -56 c44 -25 70 -51 61 -60 -16 -17 -157 61 -157 86 0
15 48 2 96 -26z m272 14 c-17 -26 -112 -78 -142 -78 -17 0 -15 4 11 30 30 30
105 69 132 70 11 0 11 -4 -1 -22z m162 -8 c39 -20 77 -57 67 -66 -16 -17 -145
53 -155 84 -5 16 37 7 88 -18z m290 24 c0 -25 -114 -94 -155 -93 -16 0 -11 8
24 39 24 22 58 44 75 49 39 11 56 13 56 5z m156 -29 c45 -26 70 -52 61 -62
-12 -11 -94 27 -133 63 l-39 35 35 -7 c19 -3 53 -17 76 -29z m274 15 c-14 -26
-87 -68 -131 -76 l-34 -5 44 40 c39 37 80 57 119 60 10 1 10 -4 2 -19z m60
-92 c0 -26 -5 -59 -11 -75 l-11 -28 -10 25 c-12 32 -13 105 -3 150 l8 35 13
-30 c7 -16 13 -51 14 -77z m-1322 15 c2 -33 -2 -71 -9 -88 l-12 -30 -7 25
c-10 31 -12 117 -4 148 11 38 27 9 32 -55z m438 32 c7 -50 -3 -135 -16 -135
-13 0 -20 28 -20 83 0 98 24 132 36 52z m439 -43 c0 -37 -4 -76 -9 -87 l-8
-20 -8 20 c-10 24 -13 137 -4 160 13 34 29 -6 29 -73z m-804 -29 c-25 -13 -47
-23 -48 -23 -2 0 -3 22 -3 50 l0 50 48 -27 48 -27 -45 -23z m309 22 l0 -56
-37 26 c-21 14 -44 25 -53 25 -11 0 72 56 88 59 1 1 2 -24 2 -54z m158 -8
c-11 -4 -33 -16 -48 -27 l-29 -20 0 54 0 55 49 -27 c43 -24 46 -28 28 -35z
m278 9 l0 -54 -35 24 c-20 13 -42 24 -51 24 -8 1 2 10 22 20 20 11 40 24 43
30 14 22 21 7 21 -44z m151 -14 c-17 -7 -39 -20 -49 -29 -17 -15 -18 -13 -18
39 l0 56 49 -26 49 -27 -31 -13z m288 14 l0 -54 -26 19 c-15 10 -37 23 -49 27
-22 8 -21 9 13 25 20 10 39 22 42 27 13 22 20 7 20 -44z m-477 -54 c16 -12 35
-29 43 -38 13 -16 11 -17 -25 -11 -42 7 -111 50 -127 78 -9 17 -6 17 35 5 25
-8 58 -23 74 -34z m-623 18 c-27 -30 -81 -61 -122 -70 l-35 -8 28 30 c31 33
97 67 128 68 19 0 19 -1 1 -20z m150 0 c23 -11 54 -33 69 -49 l28 -29 -33 8
c-64 15 -98 34 -128 73 -12 15 -11 17 5 17 10 0 36 -9 59 -20z m279 -11 c-30
-32 -56 -46 -113 -59 l-33 -8 28 30 c31 33 97 67 128 68 17 0 16 -4 -10 -31z
m445 5 c-29 -31 -71 -54 -118 -65 l-33 -7 28 30 c31 33 97 67 128 68 18 0 18
-2 -5 -26z m156 6 c23 -11 53 -32 66 -47 l24 -26 -40 6 c-38 6 -115 53 -123
76 -6 17 27 13 73 -9z m-86 -90 c0 -30 -6 -66 -13 -79 l-13 -23 -6 23 c-4 13
-7 49 -7 79 0 30 3 66 7 79 l6 23 13 -23 c7 -13 13 -49 13 -79z m-883 45 c7
-50 -3 -135 -15 -135 -12 0 -21 38 -21 90 0 92 24 122 36 45z m440 0 c7 -50
-3 -135 -16 -135 -13 0 -20 29 -20 90 0 96 23 126 36 45z m-501 -44 l0 -58
-31 23 c-17 13 -36 24 -42 24 -23 0 -12 18 18 30 16 7 35 18 41 26 6 8 12 14
13 14 1 0 1 -26 1 -59z m444 0 l-1 -59 -34 23 c-19 13 -40 26 -47 29 -9 5 -9
7 0 12 7 3 27 16 45 29 18 13 34 24 35 24 1 1 2 -26 2 -58z m436 1 l0 -58 -33
22 c-18 13 -38 25 -45 28 -9 5 -9 7 0 12 10 4 77 50 78 53 1 1 1 -25 0 -57z
m-755 28 c14 -11 31 -20 38 -20 15 0 16 -20 0 -20 -6 0 -26 -11 -45 -26 l-33
-25 0 55 c0 31 3 56 8 56 4 0 18 -9 32 -20z m440 0 c14 -11 31 -20 38 -20 6 0
12 -4 12 -10 0 -5 -6 -10 -12 -10 -7 0 -24 -9 -38 -20 -14 -11 -28 -20 -32
-20 -5 0 -8 23 -8 50 0 28 3 50 8 50 4 0 18 -9 32 -20z m440 0 c14 -11 31 -20
38 -20 24 0 11 -15 -33 -38 l-45 -22 0 50 c0 27 3 50 8 50 4 0 18 -9 32 -20z
m-1070 -70 c19 -10 46 -30 59 -44 22 -23 23 -26 6 -26 -30 0 -99 37 -131 71
l-29 31 30 -8 c17 -4 46 -15 65 -24z m287 2 c-30 -31 -104 -72 -130 -72 -44 0
38 70 104 89 52 15 55 13 26 -17z m169 -9 c16 -12 38 -30 48 -42 19 -21 19
-21 -3 -21 -31 0 -91 33 -124 68 l-28 30 39 -8 c22 -4 52 -16 68 -27z m263 1
c-39 -42 -147 -84 -137 -53 10 31 138 98 157 82 3 -2 -6 -15 -20 -29z m161 6
c19 -10 46 -30 59 -44 23 -24 23 -26 5 -26 -32 1 -97 36 -129 70 l-30 32 30
-8 c17 -4 46 -15 65 -24z m289 4 c-18 -22 -110 -74 -132 -74 -27 0 -16 19 30
52 36 27 101 50 112 42 2 -2 -2 -11 -10 -20z m-381 -71 c4 -65 -13 -127 -28
-103 -11 17 -13 123 -4 158 11 38 27 9 32 -55z m-442 22 c7 -50 -3 -135 -15
-135 -13 0 -21 38 -21 97 0 89 24 115 36 38z m-56 -40 l0 -55 -48 27 -49 27
36 19 c20 11 40 23 46 28 14 14 15 12 15 -46z m158 8 c18 -7 15 -11 -29 -34
l-49 -27 0 55 0 54 29 -20 c16 -12 38 -24 49 -28z m278 -8 c0 -53 -7 -67 -22
-44 -3 6 -25 20 -48 30 -27 12 -34 19 -21 19 14 1 84 39 90 49 1 1 1 -24 1
-54z m148 13 l29 -15 -47 -26 -46 -26 0 56 c0 53 1 55 18 41 9 -9 30 -22 46
-30z m-819 -19 c36 -9 58 -22 79 -47 31 -36 116 -82 153 -82 12 0 37 -15 55
-33 18 -17 47 -42 63 -54 l30 -22 -65 14 c-97 22 -240 98 -320 169 -37 34 -72
69 -79 79 -11 17 -10 17 11 3 13 -8 46 -20 73 -27z m1030 -20 c-72 -73 -180
-142 -279 -178 -125 -45 -138 -42 -71 19 33 30 65 50 79 50 34 0 116 46 151
84 20 21 47 37 80 46 28 7 54 17 60 21 5 5 14 9 19 9 6 0 -12 -23 -39 -51z
m-892 -3 c41 -15 107 -62 107 -77 0 -24 -111 24 -149 65 -28 30 -17 33 42 12z
m327 5 c0 -25 -114 -89 -159 -91 -26 0 31 51 84 76 54 26 75 30 75 15z m117
-6 c43 -18 103 -62 103 -75 0 -28 -113 23 -154 69 -17 19 -17 21 -2 21 9 0 33
-7 53 -15z m323 9 c0 -10 -51 -53 -80 -68 -14 -8 -41 -17 -60 -21 l-35 -7 25
27 c36 39 150 91 150 69z m-396 -45 c9 -48 7 -105 -5 -136 -10 -26 -12 -27
-19 -8 -10 24 -13 137 -4 159 10 25 21 19 28 -15z m-54 -63 l0 -54 -49 26 -48
26 41 27 c22 15 44 28 49 28 4 1 7 -23 7 -53z m147 -14 c-17 -7 -39 -20 -49
-29 -17 -15 -18 -13 -18 39 l0 56 49 -26 49 -27 -31 -13z m-205 -30 c37 -23
86 -72 72 -72 -43 0 -146 56 -158 86 -8 20 44 12 86 -14z m261 -4 c-27 -29
-69 -51 -116 -62 l-29 -7 19 25 c23 32 101 76 130 73 23 -1 23 -1 -4 -29z"/>
<path d="M342 2031 c-12 -31 -22 -62 -24 -70 -2 -8 28 -24 87 -46 50 -19 95
-34 102 -34 6 -1 21 29 33 65 19 55 20 68 9 75 -22 14 -32 6 -46 -38 -11 -33
-18 -40 -34 -36 -15 4 -18 11 -13 27 13 37 10 60 -8 64 -11 2 -18 -6 -23 -27
-8 -35 -17 -44 -39 -35 -14 5 -14 10 -1 41 20 47 19 60 -4 66 -16 4 -23 -6
-39 -52z"/>
<path d="M2665 2049 c-44 -16 -85 -31 -92 -34 -18 -6 30 -129 51 -133 24 -5
29 21 12 61 -13 32 -13 36 2 42 17 6 42 -18 42 -41 0 -17 15 -25 33 -18 14 5
14 11 2 44 -12 35 -12 38 5 43 15 4 22 -4 33 -37 11 -31 19 -40 33 -38 10 2
21 5 23 7 7 8 -42 135 -52 135 -7 -1 -48 -14 -92 -31z"/>
<path d="M435 1460 l-29 -31 -10 23 -9 23 -6 -23 -6 -23 -34 26 c-47 34 -48
32 -12 -14 31 -39 31 -40 9 -44 l-23 -4 23 -2 c27 -1 27 -5 4 -39 -35 -50 -35
-57 -1 -24 40 37 46 39 52 15 3 -13 5 -12 6 5 1 23 1 23 49 -9 47 -33 46 -26
-6 30 -12 12 -10 16 10 27 l23 13 -22 1 c-28 0 -28 4 -1 40 30 41 18 47 -17
10z"/>
<path d="M2797 1459 c-31 -26 -37 -28 -37 -12 -1 16 -2 17 -13 2 -11 -15 -15
-15 -32 -2 -49 36 -59 35 -26 -3 l34 -38 -24 -7 c-23 -7 -23 -7 4 -8 l28 -1
-24 -32 c-42 -57 -42 -64 -1 -29 33 29 39 32 42 17 3 -16 5 -16 15 -2 11 15
16 14 50 -9 45 -31 46 -28 8 16 l-30 34 22 11 21 12 -22 4 -22 3 25 38 c14 20
24 37 23 37 -2 0 -20 -14 -41 -31z"/>
<path d="M560 890 c-41 -34 -77 -66 -78 -71 -2 -6 2 -16 8 -24 11 -13 16 -12
39 4 26 19 27 19 48 -5 36 -40 104 -28 123 22 12 29 1 58 -37 103 l-29 33 -74
-62z m90 -30 c13 -24 6 -40 -19 -40 -30 0 -43 21 -24 42 21 23 30 23 43 -2z"/>
<path d="M2385 870 c-10 -11 -16 -21 -14 -23 2 -2 39 -32 82 -67 42 -34 79
-61 80 -59 2 2 20 25 41 52 32 39 36 49 26 62 -12 14 -17 12 -45 -15 l-32 -31
-60 50 c-60 50 -61 50 -78 31z"/>
<path d="M2117 648 c-16 -12 -16 -19 4 -113 12 -55 23 -102 25 -103 1 -2 12
-1 24 3 17 5 20 12 15 35 -8 37 24 58 62 41 26 -12 74 4 57 18 -46 39 -162
131 -165 131 -3 0 -13 -6 -22 -12z m72 -82 c9 -10 8 -15 -3 -19 -16 -7 -26 1
-26 20 0 17 14 17 29 -1z"/>
<path d="M878 584 c-43 -36 -78 -70 -78 -75 0 -17 31 -22 54 -9 34 18 68 -2
64 -37 -2 -17 4 -30 18 -39 21 -14 21 -12 43 93 20 101 20 109 4 121 -9 6 -19
12 -22 12 -3 -1 -41 -30 -83 -66z m62 -27 c0 -19 -10 -27 -26 -20 -11 4 -12 9
-3 19 15 18 29 18 29 1z"/>
<path d="M1280 490 c-35 -35 -24 -72 31 -101 42 -21 49 -36 22 -46 -11 -4 -22
1 -31 15 -8 12 -25 22 -38 22 -58 0 0 -81 58 -83 75 -2 109 77 47 111 -58 32
-65 39 -52 53 10 10 17 8 36 -9 29 -27 57 -29 57 -3 0 26 -46 61 -81 61 -16 0
-38 -9 -49 -20z"/>
<path d="M1709 497 c-40 -31 -51 -96 -24 -147 31 -60 107 -70 149 -19 14 17
26 37 26 45 0 21 -38 17 -50 -5 -13 -25 -47 -36 -65 -21 -7 6 -17 24 -20 40
-13 60 18 93 61 65 49 -32 79 -10 40 30 -28 28 -88 34 -117 12z"/>
</g>
</svg>
